<svg xmlns="http://www.w3.org/2000/svg" viewBox="0 0 21 21" width="24" height="24" fill="default"><path d="M5.89196 15.0685C5.65587 15.0657 5.45891 14.9835 5.3011 14.8219C5.14329 14.6603 5.06579 14.4614 5.0686 14.2253L5.08844 12.5588L15.921 12.6877L16.0103 5.18823L17.6768 5.20806C17.9129 5.21087 18.1099 5.29309 18.2677 5.4547C18.4255 5.61631 18.503 5.81516 18.5002 6.05126L18.3514 18.5504L15.058 15.1776L5.89196 15.0685ZM1.73551 14.1856L1.87436 2.5198C1.87717 2.2837 1.95938 2.08675 2.12099 1.92894C2.2826 1.77113 2.48146 1.69363 2.71755 1.69644L13.5501 1.82538C13.7862 1.82819 13.9832 1.9104 14.141 2.07201C14.2988 2.23362 14.3763 2.43247 14.3735 2.66857L14.2842 10.168C14.2814 10.4041 14.1992 10.6011 14.0376 10.7589C13.876 10.9167 13.6771 10.9942 13.441 10.9914L5.10828 10.8922L1.73551 14.1856ZM12.6276 9.31493L12.697 3.48201L3.53099 3.37291L3.46156 9.20583L12.6276 9.31493Z" fill="default"></path></svg>