<svg xmlns="http://www.w3.org/2000/svg" fill="none" viewBox="0 0 16 16"><path fill="#647491" fill-rule="evenodd" d="M7.994 1.334A6.663 6.663 0 0 0 1.334 8c0 3.68 2.98 6.667 6.66 6.667A6.67 6.67 0 0 0 14.667 8a6.67 6.67 0 0 0-6.673-6.666m4.62 4h-1.967a10.4 10.4 0 0 0-.92-2.374 5.35 5.35 0 0 1 2.887 2.374M8 2.694c.553.8.987 1.686 1.274 2.64H6.727c.286-.954.72-1.84 1.273-2.64m-5.16 6.64A5.5 5.5 0 0 1 2.667 8c0-.46.067-.907.173-1.333h2.254C5.04 7.107 5 7.547 5 8c0 .454.04.893.093 1.334zm.547 1.333h1.967c.213.833.52 1.633.92 2.373a5.33 5.33 0 0 1-2.887-2.373m1.967-5.333H3.387A5.33 5.33 0 0 1 6.274 2.96c-.4.74-.707 1.54-.92 2.374M8 13.307a9.4 9.4 0 0 1-1.273-2.64h2.547A9.4 9.4 0 0 1 8 13.307m1.56-3.973H6.44c-.06-.44-.107-.88-.107-1.334 0-.453.047-.9.107-1.333h3.12c.06.433.107.88.107 1.333 0 .454-.047.893-.107 1.334m.167 3.706c.4-.74.707-1.54.92-2.373h1.967a5.35 5.35 0 0 1-2.887 2.373m1.18-3.706C10.96 8.894 11 8.454 11 8c0-.453-.04-.893-.093-1.333h2.253c.107.426.174.873.174 1.333s-.067.907-.174 1.334z" clip-rule="evenodd"></path></svg>