<svg xmlns="http://www.w3.org/2000/svg" viewBox="0 0 22 21" width="22" height="22" fill="vibrantDark"><path d="M10.3644 1.37807C10.6145 0.835655 11.3855 0.835655 11.6356 1.37807L14.0805 6.67842C14.1824 6.89949 14.3919 7.0517 14.6337 7.08036L20.4301 7.76762C21.0233 7.83795 21.2615 8.57112 20.823 8.97668L16.5375 12.9397C16.3588 13.105 16.2787 13.3513 16.3262 13.5901L17.4638 19.3152C17.5802 19.9011 16.9565 20.3542 16.4353 20.0624L11.3419 17.2114C11.1295 17.0925 10.8705 17.0925 10.6581 17.2114L5.56472 20.0624C5.04349 20.3542 4.41982 19.9011 4.53623 19.3152L5.67381 13.5901C5.72125 13.3513 5.64123 13.105 5.46249 12.9397L1.17704 8.97668C0.738494 8.57112 0.976716 7.83795 1.56989 7.76762L7.36632 7.08036C7.60808 7.0517 7.81757 6.89949 7.91954 6.67842L10.3644 1.37807Z" fill="vibrantDark"></path></svg>