<svg xmlns="http://www.w3.org/2000/svg" viewBox="0 0 20 20" width="20" height="20"><path d="M10 0C4.36675 0 0 4.1265 0 9.7C0 12.6153 1.19475 15.1345 3.1405 16.8745C3.30375 17.0208 3.4025 17.2255 3.40925 17.4447L3.46375 19.2235C3.48125 19.791 4.06725 20.16 4.5865 19.931L6.57125 19.0548C6.7395 18.9805 6.928 18.9668 7.10525 19.0155C8.01725 19.2663 8.988 19.4 10 19.4C15.6333 19.4 20 15.2735 20 9.7C20 4.1265 15.6333 0 10 0ZM16.005 7.46325L13.0675 12.1238C12.6003 12.865 11.5995 13.0498 10.8985 12.524L8.562 10.7718C8.34775 10.611 8.05275 10.6118 7.83925 10.7738L4.684 13.1685C4.26275 13.488 3.713 12.984 3.995 12.5367L6.9325 7.87625C7.39975 7.13475 8.40025 6.95025 9.1015 7.476L11.4378 9.22825C11.652 9.389 11.947 9.38825 12.1605 9.22625L15.3158 6.8315C15.737 6.512 16.2868 7.016 16.0048 7.46325H16.005Z" fill="#000"></path></svg>