<svg xmlns="http://www.w3.org/2000/svg" viewBox="0 0 17 16" width="16" height="16"><g clip-path="url(#clip0_1399_13914)"><path d="M8.5 16C12.9183 16 16.5 12.4183 16.5 8C16.5 3.58172 12.9183 0 8.5 0C4.08172 0 0.5 3.58172 0.5 8C0.5 12.4183 4.08172 16 8.5 16Z" fill="#D3DBE5"></path><path d="M11.9624 6.12801H10.596C10.6328 5.91361 10.7656 5.79361 11.0344 5.65761L11.2856 5.52961C11.7352 5.29921 11.9752 5.03841 11.9752 4.61281C11.9752 4.34561 11.8712 4.13441 11.6648 3.98241C11.4584 3.83041 11.2152 3.75521 10.9304 3.75521C10.7101 3.75261 10.4938 3.81433 10.308 3.93281C10.1208 4.04801 9.9816 4.19681 9.8952 4.38241L10.2904 4.77921C10.444 4.46881 10.6664 4.31681 10.9592 4.31681C11.2072 4.31681 11.3592 4.44481 11.3592 4.62241C11.3592 4.77121 11.2856 4.89441 11.0008 5.03841L10.8392 5.11681C10.4888 5.29441 10.2456 5.49761 10.1048 5.72801C9.964 5.95841 9.8952 6.24801 9.8952 6.59841V6.69441H11.9624V6.12801Z" fill="#001433"></path><path d="M11.78 7.34717H9.51761L8.38641 9.30557H10.6488L11.78 11.2656L12.9112 9.30557L11.78 7.34717Z" fill="#001433"></path><path d="M8.58158 10.6127C7.14158 10.6127 5.96878 9.43991 5.96878 7.99991C5.96878 6.55991 7.14158 5.38711 8.58158 5.38711L9.47598 3.51671C9.18145 3.45814 8.88187 3.42867 8.58158 3.42871C6.05678 3.42871 4.01038 5.47511 4.01038 7.99991C4.01038 10.5247 6.05678 12.5711 8.58158 12.5711C9.54913 12.5729 10.492 12.2657 11.2728 11.6943L10.284 9.97911C9.81092 10.3877 9.20669 10.6126 8.58158 10.6127Z" fill="#001433"></path></g><defs><clipPath id="clip0_1399_13914"><rect width="17" height="16" fill="white" transform="translate(0.5)"></rect></clipPath></defs></svg>