<svg xmlns="http://www.w3.org/2000/svg" width="24" height="24" viewBox="0 0 20 20" fill="default"><path fill="default" d="M9.16663 6.61924L10.4166 6.61924L10.4166 10.9942L14.1666 13.2192L13.5416 14.2442L9.16663 11.6192L9.16663 6.61924Z"></path><path fill="default" fill-rule="evenodd" clip-rule="evenodd" d="M9.99163 2.45258C5.39163 2.45258 1.66663 6.18591 1.66663 10.7859C1.66663 15.3859 5.39163 19.1192 9.99163 19.1192C14.6 19.1192 18.3333 15.3859 18.3333 10.7859C18.3333 6.18591 14.6 2.45258 9.99163 2.45258ZM9.99996 17.4526C6.31663 17.4526 3.33329 14.4692 3.33329 10.7859C3.33329 7.10258 6.31663 4.11924 9.99996 4.11924C13.6833 4.11924 16.6666 7.10258 16.6666 10.7859C16.6666 14.4692 13.6833 17.4526 9.99996 17.4526Z"></path></svg>