<svg xmlns="http://www.w3.org/2000/svg" viewBox="0 0 24 25" width="24" height="24" fill="default"><path d="M5.66797 22.8208C5.11797 22.8208 4.64714 22.625 4.25547 22.2333C3.8638 21.8416 3.66797 21.3708 3.66797 20.8208V10.8208C3.66797 10.2708 3.8638 9.79997 4.25547 9.4083C4.64714 9.01663 5.11797 8.8208 5.66797 8.8208H6.66797V6.8208C6.66797 5.43747 7.15547 4.2583 8.13047 3.2833C9.10547 2.3083 10.2846 1.8208 11.668 1.8208C13.0513 1.8208 14.2305 2.3083 15.2055 3.2833C16.1805 4.2583 16.668 5.43747 16.668 6.8208V8.8208H17.668C18.218 8.8208 18.6888 9.01663 19.0805 9.4083C19.4721 9.79997 19.668 10.2708 19.668 10.8208V20.8208C19.668 21.3708 19.4721 21.8416 19.0805 22.2333C18.6888 22.625 18.218 22.8208 17.668 22.8208H5.66797ZM5.66797 20.8208H17.668V10.8208H5.66797V20.8208ZM11.668 17.8208C12.218 17.8208 12.6888 17.625 13.0805 17.2333C13.4721 16.8416 13.668 16.3708 13.668 15.8208C13.668 15.2708 13.4721 14.8 13.0805 14.4083C12.6888 14.0166 12.218 13.8208 11.668 13.8208C11.118 13.8208 10.6471 14.0166 10.2555 14.4083C9.8638 14.8 9.66797 15.2708 9.66797 15.8208C9.66797 16.3708 9.8638 16.8416 10.2555 17.2333C10.6471 17.625 11.118 17.8208 11.668 17.8208ZM8.66797 8.8208H14.668V6.8208C14.668 5.98747 14.3763 5.27913 13.793 4.6958C13.2096 4.11247 12.5013 3.8208 11.668 3.8208C10.8346 3.8208 10.1263 4.11247 9.54297 4.6958C8.95964 5.27913 8.66797 5.98747 8.66797 6.8208V8.8208Z" fill="default"></path></svg>