<svg xmlns="http://www.w3.org/2000/svg" viewBox="0 0 24 25" width="24" height="24" fill="default"><path fill-rule="evenodd" clip-rule="evenodd" d="M7.5793 4.41252L6.1493 2.98252C3.7493 4.81252 2.1693 7.63252 2.0293 10.8325H4.0293C4.1793 8.18252 5.5393 5.86252 7.5793 4.41252ZM19.9693 10.8325H21.9693C21.8193 7.63252 20.2393 4.81252 17.8493 2.98252L16.4293 4.41252C18.4493 5.86252 19.8193 8.18252 19.9693 10.8325ZM17.9993 11.3325C17.9993 8.26252 16.3593 5.69252 13.4993 5.01252V4.33252C13.4993 3.50252 12.8293 2.83252 11.9993 2.83252C11.1693 2.83252 10.4993 3.50252 10.4993 4.33252V5.01252C7.6293 5.69252 5.9993 8.25252 5.9993 11.3325V16.3325L3.9993 18.3325V19.3325H19.9993V18.3325L17.9993 16.3325V11.3325ZM11.9993 22.3325C12.1393 22.3325 12.2693 22.3225 12.3993 22.2925C13.0493 22.1525 13.5793 21.7125 13.8393 21.1125C13.9393 20.8725 13.9893 20.6125 13.9893 20.3325H9.9893C9.9993 21.4325 10.8893 22.3325 11.9993 22.3325Z" fill="default"></path></svg>