<svg xmlns="http://www.w3.org/2000/svg" viewBox="0 0 20 20" width="24" height="24" fill="default"><path d="M11.5 11C10.8056 11 10.2153 10.7569 9.72917 10.2708C9.24306 9.78472 9 9.19444 9 8.5C9 7.80556 9.24306 7.21528 9.72917 6.72917C10.2153 6.24306 10.8056 6 11.5 6C12.1944 6 12.7847 6.24306 13.2708 6.72917C13.7569 7.21528 14 7.80556 14 8.5C14 9.19444 13.7569 9.78472 13.2708 10.2708C12.7847 10.7569 12.1944 11 11.5 11ZM5.5 13C5.0875 13 4.73438 12.853 4.44062 12.559C4.14687 12.2651 4 11.9117 4 11.4988V5.49417C4 5.08139 4.14687 4.72917 4.44062 4.4375C4.73438 4.14583 5.0875 4 5.5 4H17.5C17.9125 4 18.2656 4.14701 18.5594 4.44104C18.8531 4.73493 19 5.08833 19 5.50125V11.5058C19 11.9186 18.8531 12.2708 18.5594 12.5625C18.2656 12.8542 17.9125 13 17.5 13H5.5ZM7 11.5H16C16 11.0833 16.1469 10.7283 16.4406 10.435C16.7344 10.1418 17.0875 9.99521 17.5 9.99521V7C17.0875 7 16.7344 6.85312 16.4406 6.55937C16.1469 6.26562 16 5.9125 16 5.5H7C7 5.91667 6.85313 6.27167 6.55938 6.565C6.26563 6.85819 5.9125 7.00479 5.5 7.00479V10C5.9125 10 6.26563 10.1469 6.55938 10.4406C6.85313 10.7344 7 11.0875 7 11.5ZM16.5 16H2.5C2.0875 16 1.73438 15.8531 1.44063 15.5594C1.14688 15.2656 1 14.9125 1 14.5V6H2.5V14.5H16.5V16Z" fill="default"></path></svg>