<svg xmlns="http://www.w3.org/2000/svg" width="139" height="47" viewBox="0 0 139 47" fill="none"><path d="M66.2584 30.2298C67.2216 30.2298 68.1312 30.212 69.0408 30.2477C69.237 30.2655 69.4688 30.4974 69.5937 30.6935C70.3963 31.8172 71.8766 32.3522 73.3035 32.0134C74.6411 31.6923 75.3724 30.8006 75.5329 29.2845C75.6042 28.5355 75.6221 27.7864 75.6578 27.1621C74.659 27.6793 73.7494 28.3928 72.7327 28.6603C69.6472 29.4451 66.8292 27.6615 66.0087 24.469C65.3667 21.972 65.6342 19.582 67.4713 17.6201C69.5758 15.3728 73.0538 15.3728 75.2475 17.5309C75.3189 17.6023 75.4081 17.6736 75.6221 17.8698C75.6221 17.2277 75.6221 16.7105 75.6221 16.1754C76.6922 16.1754 77.6553 16.1754 78.672 16.1754C78.6898 16.3716 78.7255 16.55 78.7255 16.7105C78.7255 20.9018 78.7433 25.0932 78.6898 29.3024C78.6541 32.3523 76.4247 34.5639 73.3926 34.76C71.5199 34.8849 69.7364 34.6887 68.149 33.5829C67.0432 32.7625 66.4546 31.6745 66.2584 30.2298ZM72.3047 18.7259C70.3784 18.7081 68.9516 20.2241 68.9338 22.2752C68.9159 24.3976 70.3428 26.0385 72.1977 26.0741C74.1417 26.1098 75.5864 24.576 75.6221 22.4357C75.6578 20.3489 74.2309 18.7437 72.3047 18.7259Z" fill="currentColor"></path><path d="M101.894 28.6249C100.895 28.6249 99.9321 28.6249 98.8798 28.6249C98.8798 28.1076 98.8798 27.5904 98.8798 26.9483C98.6837 27.0553 98.5766 27.0732 98.5231 27.1445C96.9179 28.8032 95.0095 29.2313 92.8514 28.5179C90.622 27.7866 89.534 26.0922 89.0703 23.8985C88.7671 22.5073 88.8741 21.134 89.32 19.7963C90.7112 15.6406 95.8835 14.6062 98.7907 17.8165C98.7907 17.2101 98.7907 16.7107 98.7907 16.1578C99.8786 16.1578 100.86 16.1578 101.912 16.1578C101.894 20.3492 101.894 24.4514 101.894 28.6249ZM95.4376 18.7262C93.547 18.7262 92.1023 20.3135 92.1023 22.3468C92.1023 24.4335 93.5827 26.0744 95.4733 26.0566C97.3995 26.0566 98.8442 24.4692 98.8263 22.3646C98.8263 20.2778 97.3816 18.7262 95.4376 18.7262Z" fill="currentColor"></path><path d="M64.7068 23.3813C61.6569 23.3813 58.6427 23.3813 55.5929 23.3813C55.7712 24.7725 56.3955 25.7713 57.7153 26.1102C58.9638 26.449 60.1231 26.2528 60.9435 25.0757C61.0505 24.9152 61.3181 24.8082 61.5321 24.7903C62.4774 24.7547 63.4227 24.7725 64.3858 24.7725C64.2253 26.7344 61.6034 29.2314 58.0007 28.8212C53.7736 28.3396 52.0971 24.9687 52.436 21.6513C52.9175 16.9962 56.4846 15.6407 59.3918 15.9974C63.28 16.4611 65.3846 19.4218 64.7068 23.3813ZM61.5856 21.2054C61.3537 19.4575 60.2479 18.5301 58.5536 18.5479C56.9484 18.5657 55.8782 19.5467 55.682 21.2054C57.6261 21.2054 59.588 21.2054 61.5856 21.2054Z" fill="currentColor"></path><path d="M115.039 23.3278C115.093 24.7368 115.806 25.6999 117.037 26.0923C118.267 26.4846 119.409 26.1458 120.229 25.1827C120.39 24.9865 120.675 24.7903 120.925 24.7903C121.87 24.7368 122.816 24.7724 123.761 24.7724C123.458 26.9305 120.764 29.2848 117.233 28.8033C113.291 28.286 111.222 25.2005 111.865 20.92C112.346 17.6561 115.539 15.5158 118.927 15.9795C122.691 16.4789 124.724 19.6358 124.064 23.3278C121.068 23.3278 118.053 23.3278 115.039 23.3278ZM120.907 21.2232C120.871 19.511 119.587 18.4765 117.697 18.5657C116.181 18.637 115.021 19.8498 115.146 21.2232C117.037 21.2232 118.927 21.2232 120.907 21.2232Z" fill="currentColor"></path><path d="M30.8557 16.1755C31.8367 16.1755 32.7998 16.1755 33.8521 16.1755C33.8521 16.6392 33.8521 17.0672 33.8521 17.3883C34.7974 16.9424 35.6713 16.3181 36.6166 16.1398C39.934 15.462 42.3775 17.2278 42.645 20.6343C42.859 23.274 42.6807 25.9315 42.6807 28.6425C41.6284 28.6425 40.6296 28.6425 39.5238 28.6425C39.5238 27.9826 39.5238 27.3583 39.5238 26.7163C39.5238 24.9505 39.5416 23.167 39.506 21.4013C39.4703 19.8139 38.4002 18.7259 36.8485 18.6368C35.3681 18.5476 34.1375 19.5107 33.9769 21.0624C33.8343 22.5249 33.8699 24.0053 33.8521 25.4856C33.8343 26.5201 33.8521 27.5545 33.8521 28.6425C32.8355 28.6425 31.8724 28.6425 30.8379 28.6425C30.8557 24.5047 30.8557 20.349 30.8557 16.1755Z" fill="currentColor"></path><path d="M137.101 20.3316C135.977 20.3316 134.907 20.3316 133.855 20.3316C132.607 18.3875 130.645 18.013 129.271 19.422C127.916 20.7953 127.952 24.0414 129.307 25.3969C130.555 26.6454 132.624 26.3957 133.605 24.8975C133.73 24.7013 134.033 24.4694 134.247 24.4694C135.193 24.4159 136.138 24.4516 137.083 24.4516C136.62 27.2518 133.998 29.071 130.805 28.857C127.416 28.6251 125.151 26.1281 125.062 22.5254C124.973 18.9226 127.202 16.3186 130.787 15.9976C133.641 15.7122 136.513 17.139 137.101 20.3316Z" fill="currentColor"></path><path d="M51.5084 16.0864C51.5084 17.0495 51.5084 17.8343 51.5084 18.7261C50.6166 18.7261 49.7427 18.7261 48.7796 18.7261C48.7796 20.9198 48.7617 23.0066 48.7974 25.0934C48.7974 25.7533 49.3325 25.9851 49.9032 26.0208C50.4204 26.0565 50.9555 26.0208 51.5262 26.0208C51.5262 26.9304 51.5262 27.7508 51.5262 28.7675C50.2777 28.6426 49.0649 28.6426 47.9056 28.3929C46.4431 28.0719 45.6405 26.8769 45.6048 25.2182C45.5692 23.3811 45.587 21.5619 45.587 19.7249C45.587 19.4395 45.587 19.1363 45.587 18.7974C45.0876 18.7617 44.6596 18.7439 44.1602 18.7261C44.1602 17.8878 44.1602 17.0674 44.1602 16.1934C44.606 16.1756 45.0341 16.1399 45.5513 16.1043C45.5513 15.1233 45.5513 14.1602 45.5513 13.1436C46.6571 13.1436 47.6738 13.1436 48.7439 13.1436C48.7439 14.1245 48.7439 15.052 48.7439 16.0864C49.6713 16.0864 50.5453 16.0864 51.5084 16.0864Z" fill="currentColor"></path><path d="M108.119 18.7085C108.119 20.8487 108.119 22.8285 108.119 24.8082C108.119 25.6286 108.582 25.9854 109.331 26.021C109.831 26.0389 110.33 26.021 110.901 26.021C110.901 26.9128 110.901 27.7332 110.901 28.7499C109.688 28.6607 108.511 28.6607 107.37 28.4467C105.8 28.1256 104.98 26.8593 104.944 24.8974C104.908 22.8998 104.944 20.8844 104.944 18.8155C104.462 18.7798 104.034 18.762 103.553 18.7263C103.553 17.9059 103.553 17.0854 103.553 16.1937C103.963 16.1758 104.391 16.1402 104.908 16.1045C104.908 15.1414 104.908 14.1782 104.908 13.1616C106.014 13.1616 107.031 13.1616 108.119 13.1616C108.119 14.1247 108.119 15.0879 108.119 16.1223C109.082 16.1223 109.956 16.1223 110.901 16.1223C110.901 17.0141 110.901 17.8167 110.901 18.7263C110.009 18.7085 109.1 18.7085 108.119 18.7085Z" fill="currentColor"></path><path d="M12.8052 21.5978C12.8052 19.7073 12.8052 17.8167 12.8052 15.944C12.8052 15.0165 13.1441 14.6598 14.0716 14.6241C14.7136 14.6063 15.3736 14.6241 16.0335 14.6241C16.8361 14.6241 17.2285 15.0879 17.2463 15.837C17.2641 19.6716 17.2641 23.5062 17.2463 27.3409C17.2463 28.1435 16.8182 28.6072 15.9978 28.625C15.3379 28.6429 14.6958 28.6429 14.0359 28.625C13.162 28.5893 12.8231 28.2148 12.8231 27.3409C12.7874 25.4325 12.8052 23.5062 12.8052 21.5978Z" fill="currentColor"></path><path d="M84.3976 28.6429C83.2918 28.6429 82.3108 28.6429 81.2764 28.6429C81.2764 24.5051 81.2764 20.3851 81.2764 16.1937C82.2752 16.1937 83.2918 16.1937 84.3797 16.1937C84.3797 16.7288 84.3797 17.246 84.3797 17.9951C85.432 16.7288 86.5557 15.9797 88.143 16.0154C88.143 17.0498 88.143 18.12 88.143 19.2971C87.7863 19.2971 87.4475 19.2793 87.1086 19.2971C85.4142 19.3506 84.4689 20.2602 84.4333 21.9368C84.3976 23.8273 84.4154 25.7179 84.4154 27.6085C84.3976 27.9295 84.3976 28.2505 84.3976 28.6429Z" fill="currentColor"></path><path d="M11.3256 23.4171C11.3256 24.6834 11.3434 25.9497 11.3256 27.2339C11.3077 28.2684 10.951 28.6072 9.91655 28.6429C9.2923 28.6607 8.66806 28.6607 8.04382 28.6429C7.31256 28.6072 6.90234 28.2327 6.90234 27.4658C6.90234 24.7548 6.90234 22.0259 6.90234 19.3149C6.90234 18.6015 7.29472 18.1913 7.95464 18.1378C8.68589 18.0843 9.43499 18.0843 10.1841 18.1378C10.9688 18.1913 11.3077 18.6907 11.3077 19.4576C11.3255 20.7596 11.3256 22.0794 11.3256 23.4171Z" fill="currentColor"></path><path d="M25.166 16.1758C26.1826 16.1758 27.1636 16.1758 28.2159 16.1758C28.2159 20.3136 28.2159 24.4515 28.2159 28.6428C27.2171 28.6428 26.2361 28.6428 25.166 28.6428C25.166 24.505 25.166 20.385 25.166 16.1758Z" fill="currentColor"></path><path d="M1.05201 25.129C1.05201 24.3621 1.06985 23.5952 1.05201 22.8282C1.03418 22.0256 1.4444 21.6333 2.22916 21.6154C2.88907 21.5976 3.53115 21.5976 4.19107 21.6154C4.97583 21.6333 5.42172 22.0613 5.43955 22.8104C5.47522 24.3443 5.47522 25.8781 5.43955 27.412C5.42172 28.1789 5.0115 28.6069 4.2089 28.6248C3.53115 28.6426 2.8534 28.6426 2.15782 28.6248C1.40873 28.5891 1.03418 28.1967 1.03418 27.4476C1.06985 26.6629 1.05201 25.8959 1.05201 25.129Z" fill="currentColor"></path><path d="M26.6819 10.95C27.7877 10.9322 28.6617 11.7526 28.6617 12.7871C28.6617 13.8215 27.7877 14.6598 26.6998 14.6598C25.6475 14.6598 24.8092 13.8572 24.7735 12.8584C24.7379 11.8061 25.594 10.9678 26.6819 10.95Z" fill="currentColor"></path></svg>