<svg xmlns="http://www.w3.org/2000/svg" width="100" height="50" viewBox="0 0 100 50" fill="none"><g clip-path="url(#clip0_1673_530)"><path d="M94.6814 25.2213H92.8871V22.9707H94.6814C95.3826 22.9707 95.8003 23.3883 95.8003 24.0896C95.8003 24.7908 95.4033 25.2187 94.6814 25.2187M94.6995 21.8467H91.7219V28.9311H92.8845V26.3427H94.6299C96.0942 26.3427 97.0016 25.4791 97.0016 24.0896C97.0016 22.7 96.12 21.8467 94.6995 21.8467ZM87.2954 22.9114C88.404 22.9114 89.149 23.9117 89.149 25.3992C89.149 26.8867 88.4375 27.8689 87.3341 27.8689C86.2307 27.8689 85.4908 26.8687 85.4908 25.3811C85.4908 23.8936 86.1997 22.9114 87.2954 22.9114ZM87.3238 21.7384C85.5088 21.7384 84.2868 23.2105 84.2868 25.3992C84.2868 27.5879 85.4985 29.0394 87.3031 29.0394C89.1077 29.0394 90.3504 27.5673 90.3504 25.3786C90.3504 23.1898 89.1335 21.7384 87.3238 21.7384ZM81.732 24.6541H78.6797V21.8467H77.4963V28.9311H78.6797V25.8375H81.732V28.9311H82.9153V21.8467H81.732V24.6541ZM73.882 24.7083C72.6187 24.3319 72.4151 24.1024 72.4151 23.6951C72.4151 23.1976 72.8224 22.9037 73.5056 22.9037C74.1888 22.9037 74.6373 23.1022 75.073 23.5482L75.1246 23.5997L75.9599 22.7541L75.9083 22.7052C75.2303 22.0478 74.493 21.7436 73.5881 21.7436C72.1985 21.7436 71.2266 22.5685 71.2266 23.7493C71.2266 25.1027 72.067 25.4482 73.4489 25.8607C74.6116 26.2087 74.9647 26.4613 74.9647 26.9434C74.9647 27.1754 74.9647 27.8844 73.5958 27.8844C72.9693 27.8844 72.2965 27.5776 71.8428 27.0852L71.7938 27.0311L70.9508 27.8509L70.9946 27.8999C71.6262 28.6398 72.5234 29.0445 73.5185 29.0445C75.8155 29.0445 76.1584 27.6833 76.1584 26.8712C76.1584 25.5126 75.1297 25.0898 73.8871 24.7109M65.787 23.8086C65.573 24.1953 65.2869 24.7392 65.1348 25.0486C64.9801 24.7341 64.6913 24.1721 64.4825 23.7982L63.3817 21.8493H61.9973L64.5392 26.1339V28.9337H65.7225V26.1339L68.2645 21.8493H66.9007L65.7896 23.8086H65.787ZM57.5373 23.0016H58.3211C60.1798 23.0016 60.5717 24.301 60.5717 25.3915C60.5717 26.482 60.1824 27.7813 58.3211 27.7813H57.5373V23.0016ZM58.3185 21.8467H56.354V28.9311H58.3185C59.128 28.9311 61.7704 28.6759 61.7704 25.3889C61.7704 23.1718 60.4789 21.8467 58.3185 21.8467ZM51.925 22.9114C53.0335 22.9114 53.7786 23.9117 53.7786 25.3992C53.7786 26.8867 53.067 27.8689 51.9637 27.8689C50.8603 27.8689 50.1204 26.8687 50.1204 25.3811C50.1204 23.8936 50.8293 22.9114 51.925 22.9114ZM51.9559 21.7384C50.141 21.7384 48.919 23.2105 48.919 25.3992C48.919 27.5879 50.1307 29.0394 51.9353 29.0394C53.7399 29.0394 54.9825 27.5673 54.9825 25.3786C54.9825 23.1898 53.7657 21.7384 51.9559 21.7384ZM45.5186 24.5948H43.7243V22.9398H45.5186C46.2559 22.9398 46.4106 23.3986 46.4106 23.7828C46.4106 23.9735 46.3462 24.5948 45.5186 24.5948ZM45.5083 27.838H43.7243V25.6776H45.5392C46.2765 25.6776 46.6993 26.0721 46.6993 26.7578C46.6993 27.4848 46.3101 27.838 45.5109 27.838M46.8154 25.0976C47.3232 24.7959 47.5913 24.3242 47.5913 23.7235C47.5913 22.5479 46.8205 21.8467 45.5263 21.8467H42.6003V28.9311H45.4284C47.0087 28.9311 47.8801 28.1474 47.8801 26.7269C47.8801 25.822 47.3387 25.2986 46.8154 25.095M34.5105 25.7292H36.5033V24.5768H34.5105V23.0016H37.9418V21.8493H33.3272V28.9337H38.0888V27.7813H34.5079V25.7292H34.5105ZM30.4449 24.6541H27.3926V21.8467H26.2092V28.9311H27.3926V25.8375H30.4449V28.9311H31.6282V21.8467H30.4449V24.6541ZM19.8493 23.0094H21.873V28.9311H23.0563V23.0094H25.0801V21.8467H19.8519V23.0094H19.8493Z" fill="#004236"></path><path d="M11.1652 19.0108C10.83 19.0701 10.5748 19.3666 10.5748 19.7172C10.5748 20.042 10.7269 20.2663 11.0878 20.4056C13.97 21.4806 15.6947 24.4453 14.7022 27.2193C13.8231 29.6709 11.4797 31.4292 8.71862 31.4317C5.95756 31.4317 3.61414 29.6709 2.73504 27.2193C1.7425 24.4453 3.46462 21.4806 6.34942 20.4056C6.71292 20.2663 6.86245 20.0395 6.86245 19.7095C6.86245 19.3563 6.60722 19.0676 6.27208 19.0083C5.29243 18.8355 1.97194 21.1429 2.0003 25.1001C2.02608 28.846 5.05268 31.7798 8.71862 31.7798C12.3846 31.7798 15.3983 28.846 15.4266 25.1001C15.455 21.1429 12.1448 18.8355 11.1652 19.0108Z" fill="#004236"></path><path d="M14.5288 26.6962C13.941 25.8326 13.0825 25.0386 11.9172 24.4972C11.6568 24.376 11.5408 24.2162 11.5408 23.9558C11.5408 23.649 11.7806 23.3757 12.1312 23.3783C12.7783 23.3783 14.1601 25.085 14.5313 26.6988L14.5288 26.6962Z" fill="#004236"></path><path d="M11.691 21.1894C11.3327 21.1791 11.0414 21.4781 11.0414 21.8365C11.0414 22.1072 11.1496 22.3031 11.4435 22.4346C13.1063 23.1822 14.1066 24.5202 14.6351 26.0438C14.9574 23.3807 12.5546 21.2126 11.691 21.1894Z" fill="#004236"></path><path d="M2.90889 26.6959C3.49668 25.8323 4.35516 25.0383 5.52042 24.4969C5.7808 24.3757 5.89681 24.2159 5.89681 23.9555C5.89681 23.6487 5.65706 23.3754 5.30645 23.378C4.65936 23.378 3.27755 25.0847 2.90631 26.6985L2.90889 26.6959Z" fill="#004236"></path><path d="M5.74676 21.1895C6.10511 21.1792 6.39642 21.4782 6.39642 21.8366C6.39642 22.1072 6.28815 22.3032 5.99425 22.4347C4.33143 23.1823 3.33116 24.5203 2.80266 26.0439C2.48041 23.3808 4.88312 21.2127 5.74676 21.1895Z" fill="#004236"></path></g><defs><clipPath id="clip0_1673_530"><rect width="95" height="12.7792" fill="white" transform="translate(2 19)"></rect></clipPath></defs></svg>