<svg xmlns="http://www.w3.org/2000/svg" width="100" height="50" viewBox="0 0 100 50" fill="none"><g clip-path="url(#clip0_1673_545)"><path d="M7.32375 27.6216H7.30066C6.77167 28.2329 5.96063 28.5622 4.65573 28.5622C2.75158 28.5622 1 27.5162 1 25.1303C1 22.7443 2.75158 21.6984 4.65573 21.6984C5.85423 21.6984 6.70041 21.9925 7.2063 22.6038H7.22939V20H10.1674V28.3042H7.32274V27.6216H7.32375ZM5.6083 23.6728C4.55033 23.6728 4.0103 24.3072 4.0103 25.1303C4.0103 25.9764 4.48007 26.5877 5.62035 26.5877C6.74859 26.5877 7.2304 26.0467 7.2304 25.1303C7.2304 24.2249 6.74758 23.6728 5.6083 23.6728ZM20.4039 26.3759C20.181 27.0455 19.6872 27.5985 18.9343 27.9739C18.1825 28.3504 17.1717 28.5622 15.8197 28.5622C12.728 28.5622 10.9654 27.4339 10.9654 25.0831C10.9654 22.8617 12.6578 21.6161 15.5496 21.6161C18.3943 21.6161 20.4862 22.5676 20.439 25.7767H13.9747C13.9747 26.2354 14.4565 26.9401 15.7494 26.9401C16.5133 26.9401 16.9599 26.7754 17.2771 26.3759H20.4039ZM17.4779 24.2951C17.4197 23.6015 16.7491 23.1669 15.7383 23.1669C14.7155 23.1669 14.1283 23.4841 13.9747 24.2951H17.4779ZM21.2842 21.874H24.1289V23.1087H24.1519C24.9158 22.1099 25.8794 21.6984 26.8902 21.6984C27.2074 21.6984 27.5366 21.7215 27.8538 21.7686V24.4015C27.3369 24.272 26.9023 24.1666 26.3843 24.1666C25.3384 24.1666 24.2212 24.5079 24.2212 25.8941V28.3032H21.2832V21.874H21.2842ZM28.429 21.874H31.2737V22.7553H31.2968C31.7555 22.1561 32.4722 21.6974 33.6948 21.6974C34.9645 21.6974 35.4815 22.132 35.8218 22.7674C36.2213 22.1792 36.9972 21.6974 38.1846 21.6974C39.5949 21.6974 40.7232 22.3087 40.7232 23.8715V28.3032H37.7851V24.6715C37.7851 24.0251 37.5151 23.8133 36.9972 23.8133C36.3859 23.8133 35.9984 24.1074 35.9984 24.8944V28.3032H33.1537V24.6715C33.1537 24.0251 32.8837 23.8133 32.3658 23.8133C31.7545 23.8133 31.367 24.1074 31.367 24.8944V28.3032H28.429V21.874ZM41.9197 23.8254C42.0963 22.9441 42.4607 22.403 43.1894 22.0627C43.9061 21.7335 44.9761 21.6161 46.528 21.6161C49.5252 21.6161 50.7127 22.2866 50.7127 24.2018V27.3044C50.7127 27.7983 50.8422 28.0914 50.9837 28.3032H47.9744C47.9162 28.1155 47.88 27.9037 47.869 27.6688C47.2105 28.2801 46.2118 28.5622 44.6489 28.5622C42.6745 28.5622 41.4278 28.0332 41.4278 26.387C41.4278 25.2116 42.2619 24.4597 44.4371 24.3654L46.9174 24.248C47.5056 24.2128 47.7054 24.0713 47.7054 23.719C47.7054 23.2954 47.1764 23.0956 46.3423 23.0956C45.6728 23.0956 45.0022 23.201 44.8617 23.8244H41.9197V23.8254ZM47.7726 25.3772C47.2788 25.4826 46.4447 25.5539 45.3987 25.6472C44.8577 25.6944 44.5997 25.87 44.5997 26.2816C44.5997 26.7283 44.9641 27.0103 45.6928 27.0103C46.6805 27.0103 47.7736 26.7634 47.7736 25.6582V25.3772H47.7726ZM51.8379 20.003H54.7769V28.3032H51.8379V20.003ZM60.3348 21.6151C63.6493 21.6151 65.0957 22.7202 65.0957 25.0821C65.0957 27.456 63.6503 28.5611 60.3348 28.5611C57.0194 28.5611 55.5739 27.456 55.5739 25.0821C55.5749 22.7202 57.0204 21.6151 60.3348 21.6151ZM60.3348 26.658C61.5213 26.658 62.0151 26.117 62.0151 25.0831C62.0151 24.0723 61.5213 23.5202 60.3348 23.5202C59.1594 23.5202 58.6535 24.0723 58.6535 25.0831C58.6535 26.117 59.1594 26.658 60.3348 26.658ZM71.9815 27.2101C71.3933 27.727 70.4769 27.9037 69.431 27.9037C66.9035 27.9037 65.5404 26.8226 65.5404 24.801C65.5404 22.7794 67.2448 21.6984 69.431 21.6984C70.6064 21.6984 71.4877 22.0276 72.0749 22.6038V21.875H74.9196V27.5443C74.9196 29.6011 73.3798 30.1501 70.4418 30.1501C67.2327 30.1501 66.1296 29.308 65.7873 28.3042H69.0315C69.0315 28.3042 69.1218 28.4658 69.3958 28.5551C69.6207 28.6284 69.9248 28.7197 70.3715 28.7197C71.57 28.7197 71.9815 28.3433 71.9815 27.462V27.2101ZM70.2882 23.6015C69.0776 23.6015 68.6189 24.1887 68.6189 24.8592C68.6189 25.5529 69.0776 26.1401 70.2882 26.1401C71.5339 26.1401 71.9805 25.5529 71.9805 24.8592C71.9815 24.1897 71.5349 23.6015 70.2882 23.6015ZM76.0709 21.874H79.0089V28.3032H76.0709V21.874ZM76.0709 20.0151H79.0089V21.2397H76.0709V20.0151ZM86.0363 24.4597C86.0012 24.0602 85.8135 23.8133 85.4842 23.6487C85.2142 23.5072 84.8027 23.449 84.4263 23.449C83.1103 23.449 82.6516 24.1777 82.6516 25.0359C82.6516 26.0236 83.2388 26.658 84.4032 26.658C85.2263 26.658 85.8376 26.4231 86.0373 25.588H89.1169C88.8107 28.256 86.4137 28.5622 84.3911 28.5622C81.688 28.5622 79.572 27.7391 79.572 25.071C79.572 22.4382 81.687 21.6151 84.3911 21.6151C87.1535 21.6151 88.7987 22.3207 89.1169 24.4597H86.0363ZM89.937 23.8254C90.1136 22.9441 90.478 22.403 91.2067 22.0627C91.9234 21.7335 92.9935 21.6161 94.5453 21.6161C97.5425 21.6161 98.73 22.2866 98.73 24.2018V27.3044C98.73 27.7983 98.8595 28.0914 99 28.3032H95.9917C95.9325 28.1155 95.8974 27.9037 95.8863 27.6688C95.2278 28.2801 94.2291 28.5622 92.6652 28.5622C90.6908 28.5622 89.4451 28.0332 89.4451 26.387C89.4451 25.2116 90.2793 24.4597 92.4544 24.3654L94.9347 24.248C95.5219 24.2128 95.7217 24.0713 95.7217 23.719C95.7217 23.2954 95.1927 23.0956 94.3586 23.0956C93.6891 23.0956 93.0185 23.201 92.878 23.8244H89.937V23.8254ZM95.7899 25.3772C95.2961 25.4826 94.462 25.5539 93.416 25.6472C92.875 25.6944 92.616 25.87 92.616 26.2816C92.616 26.7283 92.9804 27.0103 93.7091 27.0103C94.6968 27.0103 95.7899 26.7634 95.7899 25.6582V25.3772Z" fill="#5B6670"></path></g><defs><clipPath id="clip0_1673_545"><rect width="98" height="10.1501" fill="white" transform="translate(1 20)"></rect></clipPath></defs></svg>