<svg xmlns="http://www.w3.org/2000/svg" width="100" height="50" viewBox="0 0 100 50" fill="none"><g clip-path="url(#clip0_1494_77)"><path d="M52.4839 30.8492L50.7508 30.3293L49.3643 32.409H56.0368L57.2499 27.0364L51.6173 25.5633L52.4839 30.8492Z" fill="#1B1917"></path><path d="M33.3331 0.433276V3.63951H39.399V0.433276C39.4856 0.433276 39.5723 0.346621 39.5723 0.259966C39.5723 0.173311 39.4856 4.47035e-07 39.3123 4.47035e-07C39.139 4.47035e-07 39.0524 0.0866556 39.0524 0.259966C39.0524 0.346621 39.139 0.433276 39.2257 0.433276L38.7057 1.47314C38.5324 1.81976 38.0125 1.81976 37.8392 1.47314L37.3193 0.433276C37.4059 0.433276 37.4059 0.346621 37.4059 0.259966C37.4059 0.0866556 37.3193 4.47035e-07 37.2326 4.47035e-07C37.1459 4.47035e-07 36.9726 0.0866556 36.9726 0.259966C36.9726 0.346621 37.0593 0.433276 37.0593 0.433276L36.7127 1.29983C36.5394 1.64645 36.0194 1.64645 35.8461 1.29983L35.4128 0.346621C35.4995 0.346621 35.4995 0.259966 35.4995 0.173311C35.4995 0.0866556 35.4128 -0.0866547 35.2395 -0.0866547C35.1529 -0.0866547 34.9796 4.54485e-07 34.9796 0.173311C34.9796 0.259966 35.0662 0.346621 35.0662 0.346621L34.7196 1.29983C34.5463 1.64645 34.0264 1.7331 33.853 1.38648L33.3331 0.433276C33.4198 0.433276 33.5064 0.346621 33.5064 0.259966C33.5064 0.173311 33.4198 4.47035e-07 33.2465 4.47035e-07C33.1598 4.47035e-07 32.9865 0.0866556 32.9865 0.259966C33.1598 0.346621 33.2465 0.433276 33.3331 0.433276Z" fill="#1B1917"></path><path d="M33.2465 21.9237L32.0333 31.1958L30.5602 30.4159L29.5203 32.409H35.6728L38.0992 25.9099L33.2465 21.9237Z" fill="#1B1917"></path><path d="M65.9154 5.11266L49.191 7.19238C48.4978 7.27903 47.9778 7.71231 47.7179 8.40555C47.7179 8.40555 59.1563 7.71231 61.9293 7.539C64.6156 7.36569 65.5688 6.84576 65.9154 5.11266Z" fill="#1B1917"></path><path d="M47.0246 10.4853L60.1096 10.312C61.8427 10.3986 62.5359 10.312 63.1425 8.83882L47.3712 9.44541L47.0246 10.4853Z" fill="#1B1917"></path><path d="M47.2846 4.50606C46.3314 4.67937 45.4648 5.37261 45.0316 6.23917L42.6919 11.0052L41.5654 8.40554L42.6919 7.27903V4.93934L41.7387 4.67937L39.8323 5.11265L38.1858 4.41941L36.366 4.59272L34.6329 4.41941L32.9865 5.11265L31.0801 4.67937L30.1269 4.93934V7.27903L31.2534 8.40554L30.5602 12.305L32.5532 19.4107L40.0922 25.8232L39.9189 30.7626L38.2725 30.3293L36.9726 32.409H43.5584L46.5913 23.0503L58.8097 26.0832L61.3227 30.8492L59.8496 30.3293L58.7231 32.409H64.4423L65.6555 30.8492L64.529 25.0433V17.331C65.3089 17.331 65.9154 16.7244 65.9154 15.9445V15.5979H64.529L61.6693 13.2582C60.3695 12.2184 58.7231 11.6118 57.0766 11.6118L46.7647 11.5251L44.425 13.8648L46.938 7.36568C47.1979 6.67244 47.8045 6.23917 48.4978 6.15251C50.5775 5.89255 54.217 5.02599 64.269 3.81282C66.9553 3.4662 67.9085 1.64644 67.9085 0.433273L47.2846 4.50606ZM37.7525 10.5719C37.4926 10.7452 37.3193 10.6586 37.1459 10.4853L36.4527 9.53206C36.4527 9.44541 36.5394 9.4454 36.5394 9.4454C36.7993 9.4454 37.0593 9.18544 37.0593 8.92547V8.40554H36.2794H35.5861V8.92547C35.5861 9.18544 35.8461 9.4454 36.1061 9.4454C36.1927 9.4454 36.1927 9.53206 36.1927 9.53206L35.4995 10.4853C35.3262 10.6586 35.1529 10.6586 34.9796 10.5719H34.8929C34.7196 10.3986 34.6329 10.2253 34.6329 9.96534L34.8063 8.23223C34.8063 8.14558 34.8063 8.05892 34.8063 7.97227C34.8063 7.88561 34.9796 7.7123 35.0662 7.62565C35.4995 7.36568 36.2794 6.67244 36.2794 6.67244C36.2794 6.67244 37.1459 7.36568 37.4926 7.62565C37.5792 7.7123 37.6659 7.79896 37.7525 7.97227V8.23223L37.9258 9.96534C38.0125 10.2253 37.9258 10.3986 37.7525 10.5719Z" fill="#1B1917"></path><path d="M25.6208 36.1352H4.39031C4.39031 36.1352 0.0575554 36.0485 0.0575554 40.4679C0.0575554 40.4679 -0.115755 45.0607 4.39031 45.0607H8.54976C8.54976 45.0607 9.15634 45.0607 9.15634 45.4939C9.15634 45.4939 9.32965 46.1872 8.54976 46.1872H0.404176C0.230866 46.1872 0.230866 46.3605 0.230866 46.3605V49.74C0.230866 49.74 0.230866 49.9133 0.404176 49.9133H9.15634C9.15634 49.9133 13.1425 50.26 13.3158 45.7539C13.3158 45.7539 13.5758 41.1612 9.15634 41.1612H4.91024C4.91024 41.1612 4.39031 41.2478 4.39031 40.5546C4.39031 40.5546 4.30366 39.948 4.91024 39.948H14.7023C14.7023 39.948 14.8756 39.948 14.8756 40.1213V49.6534C14.8756 49.6534 14.8756 49.8267 15.0489 49.9133H18.6884C18.8617 49.9133 18.8617 49.74 18.8617 49.74V40.208C18.8617 40.208 18.8617 39.948 19.035 39.948H22.5879C22.5879 39.948 23.5411 39.948 24.061 39.1681L25.6208 36.1352Z" fill="#1B1917"></path><path d="M66.4354 49.6534V46.7071C66.4354 46.4471 66.2621 46.5338 66.2621 46.5338H60.9761C60.9761 46.5338 60.4562 46.5338 60.4562 45.7539V36.3085C60.4562 36.0485 60.2829 36.1352 60.2829 36.1352H56.8167C56.6433 36.1352 56.6433 36.3952 56.6433 36.3952V47.5737C56.6433 47.5737 56.73 49.8267 59.243 49.8267H59.3297H66.3487C66.1754 49.8267 66.4354 49.8267 66.4354 49.6534Z" fill="#1B1917"></path><path d="M85.4128 42.0277L89.0524 36.3085C89.0524 36.3085 89.139 36.1352 89.399 36.1352H93.2985C93.2985 36.1352 93.3851 36.1352 93.3851 36.3085L87.7525 44.974C87.2326 45.7539 87.2326 46.4471 87.2326 46.4471V49.74C87.2326 49.74 87.2326 49.9133 87.0593 49.9133H83.5931C83.4198 49.9133 83.4198 49.74 83.4198 49.74V46.3605C83.4198 45.5806 83.0732 45.1473 83.0732 45.1473L79.5203 39.688C79.5203 39.6014 79.347 39.6014 79.347 39.6014H71.9813C71.808 39.6014 71.808 39.7747 71.808 39.7747V41.1612C71.808 41.1612 71.808 41.3345 71.9813 41.3345H78.2205C78.2205 41.3345 78.3938 41.3345 78.3938 41.5944V44.3674C78.3938 44.3674 78.3938 44.6274 78.2205 44.6274H71.9813C71.808 44.6274 71.808 44.8007 71.808 44.8007V46.1872C71.808 46.1872 71.808 46.3605 71.9813 46.3605H78.9137C78.9137 46.3605 79.087 46.3605 79.087 46.6204V49.5667C79.087 49.5667 79.087 49.8267 78.9137 49.8267H69.3816C67.7352 49.8267 67.6485 47.9203 67.6485 47.9203V36.3951C67.6485 36.3951 67.6485 36.1352 67.8219 36.1352H81.5134C81.5134 36.1352 81.6 36.1352 81.6867 36.2218L85.2395 42.0277C85.2395 42.0277 85.3262 42.1144 85.4128 42.0277Z" fill="#1B1917"></path><path d="M40.6988 49.6534C40.6988 49.6534 40.6988 49.8267 40.8721 49.8267H44.3383C44.3383 49.8267 44.5116 49.8267 44.5116 49.6534V42.1144C44.5116 42.1144 44.5116 42.0277 44.5983 42.0277H44.6849L48.4978 47.9203C49.9709 50 51.704 49.8267 51.704 49.8267H54.9102V46.1872V36.3951C54.9102 36.1352 54.7369 36.1352 54.7369 36.1352H51.2707C51.0974 36.1352 51.0974 36.3951 51.0974 36.3951V44.1941C51.0974 44.2808 51.0108 44.2808 51.0108 44.2808C50.9241 44.2808 50.9241 44.1941 50.9241 44.1941L46.7647 37.7816C45.8981 36.3951 44.5116 36.1352 43.905 36.1352H40.6988V49.6534Z" fill="#1B1917"></path><path d="M33.1598 37.695C32.2933 36.3952 31.0801 36.0485 29.8669 36.1352C28.6537 36.1352 27.5272 36.3952 26.574 37.695C24.4076 41.8544 20.2482 49.8267 20.2482 49.8267H24.581C24.7543 49.4801 25.1875 48.7002 25.6208 47.747H29.9536C30.6468 47.747 31.3401 47.487 31.7733 46.6205C32.0333 46.1005 32.3799 45.4939 32.5532 45.0607C33.5931 47.227 34.6329 49.3068 34.9796 49.8267H39.3123C39.4856 49.8267 35.3262 41.5078 33.1598 37.695ZM27.4406 44.5407C28.7404 41.9411 29.9536 39.4281 29.9536 39.4281C29.9536 39.4281 31.1667 41.9411 32.4666 44.5407H27.4406Z" fill="#1B1917"></path><path d="M92.0853 46.1005H93.0385C93.5584 46.1005 93.9917 46.2738 93.9917 46.8804C93.9917 47.227 93.7317 47.5737 93.3851 47.5737L94.0784 48.7002H93.4718L92.8652 47.5737H92.5186V48.7002H92.0853V46.1005ZM92.8652 47.227C93.1251 47.227 93.4718 47.227 93.4718 46.8804C93.4718 46.5338 93.2118 46.5338 92.9518 46.5338H92.5186V47.227H92.8652Z" fill="#1B1917"></path><path d="M92.9518 45.3206C94.0784 45.3206 95.0316 46.2738 95.0316 47.4003C95.0316 48.5269 94.0784 49.4801 92.9518 49.4801C91.8253 49.4801 90.8721 48.5269 90.8721 47.4003C90.8721 46.2738 91.8253 45.3206 92.9518 45.3206ZM92.9518 44.8873C91.5654 44.8873 90.4388 46.0139 90.4388 47.4003C90.4388 48.7868 91.5654 49.9133 92.9518 49.9133C94.3383 49.9133 95.4648 48.7868 95.4648 47.4003C95.4648 46.0139 94.3383 44.8873 92.9518 44.8873Z" fill="#1B1917"></path></g><defs><clipPath id="clip0_1494_77"><rect width="95.5224" height="50" fill="white"></rect></clipPath></defs></svg>