<svg xmlns="http://www.w3.org/2000/svg" width="100" height="50" viewBox="0 0 100 50" fill="none"><path fill-rule="evenodd" clip-rule="evenodd" d="M39.6524 0L25.1485 14.6399V35.3601L39.6524 50H60.1479L74.6535 35.3601V14.6399L60.1479 0H39.6524Z" fill="#0061AA"></path><path d="M50.5405 33.0935H45.1072V16.9043H50.5405C55.1391 16.9043 58.5889 20.3418 58.5889 24.9881C58.5889 29.6345 55.1391 33.0935 50.5405 33.0935ZM50.5405 20.4336H48.6016V29.5426H50.5405C53.2001 29.5426 55.0945 27.6977 55.0945 24.9881C55.0945 22.2785 53.2001 20.4336 50.5405 20.4336Z" fill="white"></path><path d="M59.0312 33.409V20.7275H54.306V16.6343H67.9162V20.7275H63.1499V33.409H59.0312Z" fill="white"></path><path d="M67.6023 16.9494V20.4121H62.8378V33.0936H59.3434V20.4121H54.6182V16.9494H67.604M68.2284 16.3188H53.9939V21.0355H58.7191V33.717H63.4568V21.0355H68.223V16.3188H68.2284Z" fill="#0061AA"></path><path d="M44.5489 33.4093L43.7194 31.7537H37.0178L36.1651 33.4093H31.6879L40.3695 16.249L49.0279 33.4093H44.5489ZM41.6948 27.7703L40.3677 25.1363L39.0192 27.7703H41.6948Z" fill="white"></path><path d="M40.3676 16.9424L48.5159 33.0938H44.7379L43.9084 31.4381H36.8286L35.976 33.0938H32.198L40.3676 16.9424ZM38.5107 28.0854H42.2031L40.3676 24.4443L38.5107 28.0854ZM40.3694 15.5552L39.8129 16.656L31.6432 32.8074L31.1705 33.7244H36.3435L36.5218 33.3839L37.1997 32.0687H43.516L44.1724 33.3785L44.3508 33.7244H49.5237L49.0617 32.8074L40.9242 16.656L40.3694 15.5552ZM39.5364 27.4458L40.3659 25.8243L41.1864 27.4458H39.5364Z" fill="#0061AA"></path></svg>