<svg xmlns="http://www.w3.org/2000/svg" width="100" height="50" viewBox="0 0 100 50" fill="none"><g clip-path="url(#clip0_1311_4085)"><path d="M31.3269 19.4275C28.3767 19.4275 26.3693 21.649 26.3693 24.5614C26.3693 27.5651 28.2642 29.6741 31.3269 29.6741C33.5259 29.6741 35.1227 28.6911 35.8891 26.3965H33.5411C33.3738 27.0051 32.507 27.6564 31.4364 27.6564C29.9522 27.6564 29.1249 26.8834 29.0489 25.1914H36.0655C36.2419 22.2029 34.6451 19.4214 31.333 19.4214L31.3269 19.4275ZM29.0367 23.5054C29.0412 23.2219 29.1028 22.9423 29.2179 22.6832C29.333 22.4242 29.4992 22.191 29.7066 21.9978C29.9139 21.8045 30.1581 21.6552 30.4245 21.5586C30.6909 21.4621 30.9741 21.4204 31.257 21.436C32.5496 21.436 33.1335 22.1512 33.386 23.5054H29.0367ZM42.9726 19.4275C42.3804 19.4197 41.7961 19.5639 41.2754 19.8463C40.7547 20.1286 40.315 20.5397 39.9981 21.0404H39.9373V19.6953H37.4098V29.4123H40.0802V24.321C40.0802 22.3429 40.6885 21.5334 42.1484 21.5334C43.3893 21.5334 43.8577 22.3246 43.8577 23.9223V29.4002H46.5342V23.4263C46.5342 21.0221 45.8134 19.4214 42.9757 19.4214L42.9726 19.4275ZM55.2601 20.873H55.2236C54.9046 20.4088 54.4737 20.0327 53.9707 19.7795C53.4678 19.5262 52.9091 19.4041 52.3464 19.4244C49.4874 19.4244 48.0428 21.859 48.0428 24.4701C48.0428 27.1573 49.4662 29.6801 52.3981 29.6801C53.636 29.6801 54.7248 29.2237 55.3483 28.1737H55.3848V29.4154H57.9214V15.9825H55.251L55.2601 20.873ZM53.0703 27.6594C51.4127 27.6594 50.7162 26.0648 50.7162 24.5401C50.7162 22.9424 51.3245 21.436 53.0672 21.436C54.81 21.436 55.3483 22.9424 55.3483 24.5218C55.3483 26.1013 54.8313 27.6625 53.0672 27.6625L53.0703 27.6594ZM64.3541 19.4244C61.4039 19.4244 59.3874 21.646 59.3874 24.5675C59.3874 27.5803 61.2852 29.6801 64.3449 29.6801C66.547 29.6801 68.1468 28.7063 68.9071 26.4056H66.5652C66.3919 27.0143 65.5311 27.6655 64.4575 27.6655C62.9733 27.6655 62.146 26.8925 62.0699 25.2005H69.0653C69.2478 22.2181 67.6541 19.4335 64.351 19.4335L64.3541 19.4244ZM62.0578 23.5115C62.0623 23.228 62.1239 22.9484 62.239 22.6893C62.3541 22.4302 62.5203 22.1971 62.7276 22.0039C62.935 21.8106 63.1792 21.6613 63.4456 21.5647C63.712 21.4682 63.9951 21.4265 64.278 21.4421C65.5737 21.4421 66.1546 22.1572 66.4071 23.5115H62.0578ZM86.3894 23.5724C84.8687 23.2072 83.348 23.0793 83.348 22.1207C83.348 21.3295 84.23 21.2078 84.8383 21.2078C85.7933 21.2078 86.5841 21.4877 86.6631 22.5224H89.1967C88.9838 20.1365 87.0372 19.4183 84.9082 19.4183C82.7792 19.4183 80.6806 20.0574 80.6806 22.5437C80.6806 24.254 82.2226 24.7957 83.7616 25.1396C85.6777 25.5535 86.7909 25.8396 86.7909 26.643C86.7909 27.5864 85.8176 27.8907 85.0451 27.8907C83.9927 27.8907 83.0134 27.419 82.9952 26.2535H80.4586C80.5742 28.828 82.7701 29.6771 85.0208 29.6771C87.2714 29.6771 89.4552 28.8463 89.4552 26.29C89.4674 24.4945 87.9436 23.9284 86.3712 23.5693L86.3894 23.5724ZM99.6593 27.2547V22.1907C99.6593 19.8566 97.3265 19.4214 95.4013 19.4214C93.2175 19.4214 90.982 20.1761 90.8391 22.6776H93.5064C93.5977 21.6247 94.2577 21.2108 95.2766 21.2108C96.2103 21.2108 97.0011 21.3812 97.0011 22.5255C97.0011 23.621 95.4803 23.5602 93.844 23.8036C92.2077 24.0471 90.5288 24.5553 90.5288 26.7556C90.5288 28.752 91.9979 29.6771 93.844 29.6771C95.0241 29.6771 96.2772 29.3515 97.1105 28.4598C97.1364 28.7786 97.1997 29.0932 97.2991 29.3971H100.006C99.7444 29.0167 99.6471 28.1342 99.6471 27.2486L99.6593 27.2547ZM96.9828 25.6539C96.9828 26.2382 96.9128 27.8938 94.8234 27.8938C93.9626 27.8938 93.1901 27.6503 93.1901 26.6521C93.1901 25.6539 93.9444 25.3953 94.7717 25.2218C95.5989 25.0483 96.5357 25.0544 96.9919 24.6588L96.9828 25.6539ZM70.6742 29.4184H73.3355V15.9825H70.6773L70.6742 29.4184ZM74.9809 26.8134L76.8727 29.4184H80.1575L76.6446 24.5645H73.3446L74.9809 26.8134ZM76.8818 19.6953L73.3446 24.5645H76.6446L80.1818 19.6953H76.8818ZM11.527 13.0001C9.24746 13.0013 7.01941 13.6788 5.12459 14.9469C3.22976 16.215 1.75325 18.0168 0.881722 20.1244C0.0101943 22.2321 -0.217213 24.5509 0.22825 26.7879C0.673712 29.0249 1.77204 31.0794 3.38438 32.6919C4.99672 34.3043 7.05066 35.4022 9.28654 35.8467C11.5224 36.2913 13.8398 36.0625 15.9458 35.1894C18.0517 34.3162 19.8517 32.8379 21.118 30.9413C22.3843 29.0447 23.0602 26.8149 23.0602 24.534C23.0602 21.475 21.8458 18.5413 19.684 16.3783C17.5223 14.2153 14.5903 13.0001 11.5331 13.0001H11.527ZM17.2541 29.5249H5.80911C5.53001 29.5249 5.26235 29.414 5.06499 29.2165C4.86764 29.0191 4.75677 28.7512 4.75677 28.472C4.75677 28.1927 4.86764 27.9249 5.06499 27.7274C5.26235 27.5299 5.53001 27.419 5.80911 27.419H17.2541C17.5324 27.419 17.7993 27.5296 17.9961 27.7265C18.1929 27.9234 18.3034 28.1905 18.3034 28.4689C18.3034 28.7474 18.1929 29.0144 17.9961 29.2113C17.7993 29.4082 17.5324 29.5189 17.2541 29.5189V29.5249ZM18.127 23.3258C18.0516 23.4423 17.9538 23.5426 17.8394 23.621C17.725 23.6994 17.5962 23.7544 17.4605 23.7827C17.3247 23.811 17.1847 23.8121 17.0485 23.7859C16.9124 23.7597 16.7827 23.7068 16.6671 23.6302L11.527 20.1822L6.38699 23.621C6.27236 23.6976 6.14379 23.7508 6.00861 23.7776C5.87344 23.8044 5.73431 23.8043 5.59917 23.7773C5.46403 23.7503 5.33552 23.697 5.22099 23.6203C5.10646 23.5436 5.00814 23.4451 4.93165 23.3304C4.85517 23.2157 4.80201 23.0871 4.77521 22.9518C4.74841 22.8166 4.7485 22.6773 4.77547 22.5421C4.82994 22.269 4.99061 22.0288 5.22211 21.8742L10.9492 18.0519C11.1216 17.9368 11.3243 17.8753 11.5316 17.8753C11.7389 17.8753 11.9416 17.9368 12.114 18.0519L17.8381 21.8681C17.9535 21.9446 18.0526 22.0431 18.1298 22.158C18.207 22.2729 18.2607 22.402 18.2878 22.5377C18.315 22.6735 18.315 22.8133 18.2879 22.9491C18.2608 23.0849 18.2072 23.2139 18.13 23.3289L18.127 23.3258Z" fill="black"></path></g><defs><clipPath id="clip0_1311_4085"><rect width="100" height="23.0769" fill="white" transform="translate(0 13)"></rect></clipPath></defs></svg>