<svg xmlns="http://www.w3.org/2000/svg" width="100" height="50" viewBox="0 0 100 50" fill="none"><g clip-path="url(#clip0_1311_4055)"><mask id="mask0_1311_4055" style="mask-type:luminance" maskUnits="userSpaceOnUse" x="10" y="0" width="80" height="51"><path d="M90 0.0446167H10V50.0446H90V0.0446167Z" fill="white"></path></mask><g mask="url(#mask0_1311_4055)"><path d="M26.2281 9.59896C26.2925 9.60146 26.3662 9.60334 26.4525 9.60459C26.8044 9.61021 27.2019 9.46521 27.4662 9.34146C27.6544 9.25396 27.7769 9.17709 27.7606 9.17709C27.5169 9.17396 27.125 9.17084 26.9787 9.17084C26.3437 9.17084 26.0094 9.53084 26.0069 9.56459C26.0044 9.58459 26.0919 9.59334 26.2281 9.59896ZM85.3037 26.5771C84.9425 25.7733 83.9475 26.0346 83.9475 26.0346C83.4775 26.1333 82.9406 26.6715 82.1431 26.9077C80.4306 27.4152 79.0631 26.8258 79.0631 26.8258C76.4269 25.6858 67.9519 20.8333 63.6412 18.714C63.6412 18.714 58.6344 16.3958 51.3669 13.519C51.3669 13.519 37.0912 7.42584 27.5606 7.92584C27.5606 7.92584 22.4806 8.06021 20.8819 10.3015C20.8819 10.3015 20.61 10.6102 20.7644 10.944C20.7644 10.944 20.7944 11.0402 20.7306 11.1033C20.7306 11.1033 19.8756 11.8702 19.44 12.5515C19.2869 12.799 19.1406 13.1965 19.4306 13.5065C19.4306 13.5065 19.5719 13.6158 19.6312 13.7121C19.7556 13.9146 19.8706 14.2177 20.0244 14.3971C20.2462 14.6621 20.6956 15.1202 21.3287 15.0108C21.6106 14.9621 21.6125 14.8827 21.6125 14.8827C21.9294 15.1977 22.4437 15.1877 22.4437 15.1877C22.3787 14.9858 22.1581 14.5915 22.1269 14.3527C22.0931 14.0896 22.1694 13.8383 22.1694 13.8383C22.2594 13.5402 22.4362 13.1646 22.6319 12.9746C22.8031 12.8046 23.2419 12.6102 23.595 12.8546C23.8775 13.0546 24.2137 13.7058 23.9331 14.6346C23.9212 14.7052 23.6119 15.3646 23.2812 15.4646C23.2812 15.4646 23.25 15.4746 23.1869 15.4746C22.9637 15.4746 22.5487 15.2415 22.5487 15.2415C22.5487 15.2415 22.5387 15.3008 22.5975 15.5408C22.6344 15.679 22.6831 15.8296 22.7225 15.9465C22.7225 15.9465 22.6425 16.0908 22.59 16.1746C22.5206 16.2646 22.4425 16.5921 22.6144 16.7165C22.6144 16.7165 23.3481 17.2158 24.0606 17.2596C24.5512 17.2896 24.7375 16.9577 24.7375 16.9577C25.0987 16.4596 25.3712 16.0358 25.7512 15.689C26.7931 14.7358 28.2544 14.4796 28.2544 14.4796C28.3519 14.4665 29.9481 14.0227 32.6631 16.1927C31.8875 16.2552 30.9644 16.4402 30.26 16.5652C28.2487 16.924 26.9587 18.8215 26.5831 19.5921C25.6062 21.6065 27.6037 22.3008 27.6037 22.3008C27.6219 22.2827 29.5087 22.134 30.4194 20.129C30.4194 20.129 30.7525 19.2415 31.6369 19.5283C32.2162 19.7165 37.3312 21.5046 38.4831 21.8065C38.4831 21.8065 41.9081 22.699 43.1975 21.1233C45.2587 21.8002 47.1944 22.1277 52.2631 21.4733C53.1437 21.359 53.8356 21.3852 53.8356 21.3852C55.02 21.474 56.1006 22.2702 56.4281 22.794C57.76 24.9271 59.4512 29.1652 65.3225 28.6483L67.9769 28.4083C69.5981 28.3121 70.9162 28.249 72.2556 28.9527C72.8381 29.259 73.1612 29.3715 74.1494 30.3146C75.5025 31.6015 76.7469 32.9933 78.4025 32.234C78.9887 31.9633 79.6494 30.9146 79.6494 30.9146C79.5856 30.4352 79.3725 29.9746 78.8456 29.5815C80.3494 29.939 83.7412 30.1702 85.0544 27.8752C85.395 27.3408 85.4319 26.8646 85.3037 26.5771ZM84.7681 27.6602C84.6394 28.1046 84.005 28.6996 83.2325 29.0415C82.4212 29.4046 80.73 29.4996 79.7531 29.3396C79.75 29.3396 77.8587 29.1477 76.2012 27.4165C75.6781 26.8696 75.035 26.2496 74.4412 25.6377C74.18 25.364 73.5362 24.7208 72.4681 24.5783C71.355 24.4277 68.6369 24.354 67.6144 24.0152C66.9306 23.7877 66.1069 23.3246 65.01 21.7008C64.4825 20.9233 64.1075 20.7102 63.39 20.2546C63.39 20.2546 63.94 20.6921 64.2525 21.2446C64.7025 22.0471 64.9294 22.6315 65.1737 23.0577C65.4194 23.4871 65.6962 23.8671 66.115 24.204C66.6337 24.6208 66.9587 24.7002 67.5219 24.7933C68.0606 24.8833 69.88 24.8665 71.4419 24.8433C72.9775 24.8196 73.6631 25.3152 74.1675 25.7396C74.635 26.1327 75.4356 27.2577 75.9281 27.7515C76.5144 28.3352 76.9444 28.9315 78.1038 29.5177C78.5069 29.7215 79.1669 30.2233 79.1325 30.7077C78.6113 31.2296 77.9638 31.3665 76.41 30.9508C76.52 31.059 77.3337 31.9127 78.7244 31.509C78.3044 31.8596 77.8938 32.0096 77.4638 31.9858C76.0081 31.9052 74.5819 30.1115 73.7831 29.449C73.175 28.9465 73.1056 28.8196 72.0731 28.1058C70.5056 27.0202 66.9887 27.3271 66.9887 27.3271L64.4075 27.4608C59.3812 27.8408 57.2706 23.3883 56.7137 22.4596C56.52 22.1371 56.3462 21.8771 56.1794 21.6658C55.9225 21.324 54.5494 19.5427 53.1606 18.9577C53.1606 18.9577 54.5244 20.1321 54.4444 20.9096C54.4444 20.9096 53.8794 20.6465 52.3406 20.8665C45.7187 21.809 43.4656 20.1527 43.4656 20.1527C43.7731 18.8258 42.8462 17.4646 42.8462 17.4646C43.3569 17.6271 46.6125 18.7258 49.7044 18.0983C49.7044 18.0983 44.6737 18.1252 41.1456 15.3115C41.1456 15.3115 43.3406 18.0615 42.8194 19.8633C42.8194 19.8633 42.4587 21.7827 38.6325 21.0083C38.2237 20.9271 37.7431 20.7908 32.015 19.2021C30.6687 18.799 30.2037 19.4427 29.9606 19.8283C29.9506 20.3946 29.2831 21.0552 28.9469 21.2627C27.1744 20.9433 27.88 19.299 27.88 19.299C26.7644 20.894 27.9331 21.5996 28.3025 21.6496C28.0812 21.7571 27.8719 21.834 27.6944 21.9002C27.6944 21.9002 26.2456 21.0377 27.055 19.6233C28.1844 17.6533 29.3331 17.0208 31.4419 16.8283C32.3637 16.7402 33.1331 16.6746 33.7181 16.7552C35.2475 16.9665 36.2056 17.8296 38.4962 18.0527C33.635 16.6208 33.6244 13.8058 33.6069 13.7521C33.6062 13.7515 33.6056 13.7465 33.6056 13.7465C33.3362 14.6758 33.4844 15.4583 33.7219 16.119C33.6544 16.0952 32.5919 15.3965 32.1869 15.1502C30.4412 14.084 29.0631 13.8983 29.0631 13.8983C28.485 13.8252 28.215 13.1215 28.215 13.1215C28.195 13.0852 28.1737 13.0527 28.1537 13.0183C27.3487 11.644 26.5525 11.6158 26.5525 11.6158C27 12.2252 27.0094 13.0933 27.0094 13.0933C27.2481 14.8027 25.3144 15.3296 25.3144 15.3296C24.1294 16.8333 24.1912 16.8646 23.9275 16.904C23.6631 16.9402 23.0844 16.6465 23.0844 16.6465C22.99 16.5058 23.1237 16.3652 23.1237 16.3652C23.3456 16.1896 23.5275 16.014 23.5275 16.014C24.78 14.7327 24.9306 14.1065 24.7756 13.2765C24.4587 11.6102 23.2687 11.8046 23.2687 11.8046C22.7069 11.8371 22.4556 12.3383 22.4556 12.3383C22.2575 12.6452 21.8344 13.584 21.8344 13.584C21.5756 14.144 21.3119 14.2702 21.1756 14.2952C21.1156 14.3065 21.0056 14.3046 20.9694 14.3033C20.5669 14.2883 20.2606 13.9171 20.2606 13.9171C20.2419 13.8983 20.2237 13.8777 20.2106 13.8621C19.8419 13.4665 20.1094 12.9502 20.1094 12.9502C20.605 11.7933 21.5694 11.6252 21.7006 11.6083C21.835 11.5908 22.2787 11.5265 22.2787 11.5265C23.5044 11.3208 24.0825 10.0452 24.0825 10.0452C23.2562 10.0352 22.8525 10.0896 22.8525 10.0896C22.04 10.2321 21.7644 11.189 21.7644 11.1871C21.0756 11.3446 21.0937 10.7533 21.2144 10.5727C21.3225 10.4065 21.7262 9.69646 24.3681 9.08584C24.3681 9.08584 25.6706 8.69459 28.455 8.81959L28.34 9.03334C28.0937 9.49834 27.1175 10.459 25.5037 10.1027C25.5037 10.1027 25.5181 10.8196 27.2687 11.0765C27.2687 11.0765 28.8512 11.359 31.5356 13.5165C31.5356 13.5165 30.2525 10.9658 28.0725 10.3065C28.0725 10.3065 27.8012 10.2483 27.9344 10.0777C27.9344 10.0777 29.2794 8.82771 31.0112 8.77834C31.0112 8.77834 36.8787 8.21334 40.1356 12.6958C40.1356 12.6958 39.1537 10.7933 38.41 9.96209C38.41 9.96209 41.8169 10.9246 47.055 12.7458C47.055 12.7458 50.63 14.014 52.9175 14.9158C56.005 16.1321 63.7262 19.1365 68.6519 21.8215C69.5306 22.299 78.4394 26.9452 78.4394 26.9452C80.9062 28.0527 82.6137 27.3796 82.6137 27.3796C83.1687 27.1683 84.1756 26.3952 84.6162 26.8327C84.8469 27.0571 84.8769 27.3615 84.7681 27.6602ZM22.0319 11.1646C22.0319 11.1646 22.0844 11.0108 22.0987 10.9727C22.1131 10.9365 22.26 10.5365 22.6225 10.4977C22.6225 10.4977 22.8337 10.4846 23.1581 10.4846C23.1581 10.4846 22.9994 10.9946 22.3744 11.1046C22.375 11.1052 22.1306 11.1602 22.0319 11.1646ZM25.6444 39.9177H30.9862L28.3112 36.8121L25.6444 39.9177ZM31.6612 40.7008H24.9719L23.8619 41.9927H22.5544L27.815 35.9283H30.0394L35.305 41.9927H32.7737L31.6612 40.7008ZM65.1362 39.9177H70.4787L67.8037 36.8121L65.1362 39.9177ZM71.1531 40.7008H64.4637L63.355 41.9927H62.0469L67.3075 35.9283H69.5331L74.7981 41.9927H72.2662L71.1531 40.7008ZM21.5231 35.9283V38.8852C21.5231 39.8421 21.3037 40.4221 20.8494 40.8877C20.0556 41.6996 18.5337 41.9927 16.38 41.9927H11.84V41.1783H16.0194C17.3025 41.1783 18.1687 40.9658 18.6912 40.4496C19.0875 40.0583 19.265 39.514 19.265 38.7046V35.9283H21.5231ZM45.1337 41.1821V39.2077H47.3806V41.9921H40.8462C39.6212 41.9921 38.6562 41.849 37.9275 41.5558C36.7131 41.0671 36.1581 40.1715 36.1581 38.9483C36.1581 37.794 36.7625 36.9927 37.5325 36.5615C38.35 36.104 39.2719 35.9277 40.8062 35.9277H47.15V36.7377H41.5094C40.3012 36.7377 39.6419 36.9196 39.1406 37.3283C38.6944 37.6908 38.4569 38.2333 38.4569 38.9596C38.4569 39.7108 38.7069 40.2658 39.1831 40.6283C39.6862 41.0115 40.3644 41.1815 41.5281 41.1815L45.1337 41.1821ZM84.6062 39.8502C85.4544 39.8227 86.1744 39.694 86.7281 39.3958C87.3037 39.0852 87.5775 38.5015 87.5775 37.8952C87.5775 37.0846 87.215 36.5658 86.555 36.2758C85.9688 36.0183 85.2437 35.9296 83.8019 35.9296H76.8019V41.9933H79.0594V39.8915H82.0256L85.41 41.9933H88.16L84.6062 39.8502ZM83.5081 36.6921C84.3544 36.6921 84.7294 36.7715 84.9863 36.964C85.2313 37.1471 85.3187 37.4271 85.3187 37.8621V37.9758C85.3187 38.3683 85.2256 38.6877 84.9375 38.8877C84.6544 39.0833 84.2575 39.1271 83.5356 39.1271H79.06V36.6921H83.5081ZM61.0506 35.9283V38.9502C61.0506 39.7327 60.965 40.3508 60.57 40.8677C59.9287 41.7096 58.7525 42.1927 55.4712 42.1927L55.4369 42.1933C52.1744 42.1933 50.9912 41.7096 50.3506 40.869C49.9562 40.3508 49.8712 39.7333 49.8712 38.9508V35.929H52.1294V38.8646C52.1294 39.6521 52.2287 40.1146 52.5175 40.5215C53.0056 41.2102 53.8487 41.4583 55.365 41.4583H55.5569C57.1425 41.4583 57.9162 41.209 58.4044 40.5208C58.6931 40.114 58.7925 39.6308 58.7925 38.8671V35.9283H61.0506Z" fill="#484848"></path></g></g><defs><clipPath id="clip0_1311_4055"><rect width="100" height="50" fill="white"></rect></clipPath></defs></svg>