<svg xmlns="http://www.w3.org/2000/svg" width="100" height="64" viewBox="0 0 100 64" fill="none"><path d="M69.362 26.0731C76.0829 23.1162 80.4717 18.6758 80.711 13.7498C80.711 13.7498 78.9365 12.3827 73.2074 10.2749C68.1766 8.42367 64.3387 8 64.3387 8L64.3563 18.9755C64.3563 20.6155 63.6981 22.2895 62.4549 23.7714C58.6523 22.8534 54.4498 22.3381 50.0417 22.3367H50.0389C45.6283 22.3381 41.4208 22.8548 37.6138 23.7745C36.371 22.2923 35.711 20.6169 35.711 18.9755L35.7276 8C35.7276 8 31.8922 8.42367 26.8583 10.2749C21.1295 12.3827 19.358 13.7498 19.358 13.7498C19.5954 18.6771 23.9859 23.1189 30.7141 26.0758C23.9917 29.0327 19.6031 33.4729 19.3652 38.3974C19.3652 38.3974 21.1383 39.7659 26.8671 41.8724C31.8996 43.7236 35.7361 44.1472 35.7361 44.1472L35.7185 33.1717C35.7185 31.5317 36.3768 29.8563 37.6213 28.3758C41.4239 29.2955 45.625 29.8091 50.0329 29.8091H50.0345C54.4468 29.8091 58.6554 29.2938 62.461 28.3711C63.7039 29.8533 64.3621 31.5317 64.3621 33.1717L64.3475 44.1472C64.3475 44.1472 68.184 43.7236 73.2162 41.8724C78.9454 39.7659 80.7182 38.3974 80.7182 38.3974C80.4791 33.4701 76.0889 29.0283 69.362 26.0728M50.0359 28.5425H50.0315L49.9059 28.5398C45.9261 28.5398 42.6816 27.5655 40.3019 26.0758C42.6816 24.5835 45.9278 23.6078 49.915 23.6078L50.0373 23.6061H50.0433L50.1686 23.6078C54.1501 23.6078 57.3932 24.5821 59.7727 26.0714C57.3932 27.5624 54.147 28.5395 50.1615 28.5395M10.5605 56.3071C8.6326 56.3071 8.59865 54.8368 8.59865 54.2702V51.5951C8.59865 51.4328 8.5854 51.2172 8.92931 51.2172H9.9257C10.2492 51.2172 10.2285 51.4477 10.2285 51.5954V54.2699C10.2285 54.4603 10.2638 54.9712 10.9652 54.9712H12.6361C13.3239 54.9712 13.3639 54.4606 13.3639 54.2702V51.5951C13.3639 51.4477 13.3446 51.2172 13.6665 51.2172H14.6703C15.0346 51.2172 15.0023 51.4477 15.0023 51.5954V54.2699C15.0023 54.8368 14.9684 56.3071 13.0333 56.3071M19.7939 55.9842C19.1132 55.0675 18.1419 53.9133 17.1516 52.6939V55.9502C17.1516 56.0921 17.1869 56.3077 16.8488 56.3077H15.9187C15.5822 56.3077 15.6223 56.0921 15.6223 55.9502V51.5956C15.6223 51.448 15.6073 51.2175 15.919 51.2175H17.7315C18.2438 51.2175 18.973 52.2495 19.4513 52.9301C19.8203 53.4496 20.5024 54.2304 20.96 54.8167V51.5956C20.96 51.448 20.9393 51.2175 21.2774 51.2175H22.287C22.6119 51.2175 22.5912 51.448 22.5912 51.5956V56.3077H20.7312C20.3326 56.3077 20.1571 56.3341 19.7939 55.9842ZM27.4567 54.9685C28.2715 54.9685 28.2124 54.1862 28.2124 53.8288C28.2124 52.6287 27.8746 52.5815 27.3355 52.5815H24.7744V54.9685H27.4567ZM23.2023 56.3088V51.2263H27.6943C27.969 51.2263 29.8083 51.194 29.8083 53.1264C29.8083 55.1026 30.0236 56.3088 27.7344 56.3088H25.3132L24.7877 55.2445V56.3088M31.5678 51.2589H35.7055C36.0569 51.2589 36.0097 51.488 36.0097 51.913C36.0097 52.3086 36.0629 52.5313 35.7055 52.5313H32.4359C32.3487 52.5313 32.0536 52.4844 32.0536 52.7941C32.0536 53.1043 31.9929 53.2268 32.3222 53.2268H35.2139C35.2139 53.2268 35.6318 54.0223 35.679 54.1567C35.7469 54.2779 35.7397 54.393 35.4841 54.393H32.4905L32.0255 53.4896V54.8238C32.0255 55.1341 32.3029 55.0733 32.3826 55.0733H35.7795C36.1173 55.0733 36.0894 55.3079 36.0894 55.6919C36.0894 56.1053 36.1173 56.3325 35.7795 56.3325H31.4792C31.1221 56.3325 30.4221 56.2248 30.4221 55.1073V52.3025C30.4221 52.0132 30.5772 51.2592 31.5678 51.2592M40.7316 52.5672H38.7168C38.3817 52.5672 38.3933 52.6823 38.3933 52.7841V53.6936H40.4689C41.4741 53.6936 41.4741 53.4424 41.4741 53.1799C41.4741 52.6544 41.4343 52.5672 40.7316 52.5672ZM37.1269 51.2255H41.6557C42.2624 51.2255 43.1437 51.2194 43.1437 52.8567C43.1437 53.9282 42.9165 53.9814 42.4307 54.3121C43.2472 54.4537 43.1392 55.4976 43.1392 56.0377C43.1392 56.3137 43.0388 56.3079 42.9563 56.3079H41.6292C41.3515 56.3079 41.4194 55.8693 41.4194 55.6405C41.4194 55.0132 41.0697 55.0413 40.9337 55.0413H38.9795C38.7918 54.7165 38.4275 53.9889 38.4275 53.9889V56.0982C38.4275 56.2814 38.2442 56.3079 38.1777 56.3079H36.8449C36.9172 56.3079 36.7077 56.3212 36.7077 56.1382V51.6641C36.7077 51.3467 36.9304 51.2252 37.1267 51.2252M50.403 52.6665L49.5675 54.1901L49.6412 54.2638H51.1987L51.2799 54.1901C51.2252 54.075 50.552 52.7952 50.4841 52.6591L50.403 52.6665ZM50.9418 51.2597C51.2724 51.2597 51.5942 51.4074 51.9456 52.0877C52.1832 52.5721 53.828 55.5437 54.1702 56.1652V56.3336H52.4579L51.9649 55.4432H49.8833C49.8833 55.4432 49.5336 54.6417 49.4334 54.4203C49.3047 54.6284 48.6169 55.9364 48.379 56.3333H46.6622V56.2257C47.0122 55.566 49.4052 51.2597 49.4052 51.2597M58.6612 52.5672H56.6463C56.3096 52.5672 56.3228 52.6823 56.3228 52.7841V53.6936H58.3984C59.4036 53.6936 59.4036 53.4424 59.4036 53.1799C59.4036 52.6544 59.3639 52.5672 58.6612 52.5672ZM55.0565 51.2255H59.5852C60.1919 51.2255 61.0749 51.2194 61.0749 52.8567C61.0749 53.9282 60.8474 53.9814 60.36 54.3121C61.1751 54.4537 61.0674 55.4976 61.0674 56.0377C61.0674 56.3137 60.967 56.3079 60.8858 56.3079H59.5588C59.2811 56.3079 59.349 55.8693 59.349 55.6405C59.349 55.0132 58.9993 55.0413 58.8632 55.0413H56.9091C56.72 54.7165 56.3554 53.9889 56.3554 53.9889V56.0982C56.3554 56.2814 56.1754 56.3079 56.1073 56.3079H54.773C54.8467 56.3079 54.6386 56.3212 54.6386 56.1382V51.6641C54.6386 51.3467 54.8616 51.2252 55.0562 51.2252M65.0315 56.3071C64.6933 55.6739 63.7563 53.9276 63.1229 52.7836V55.9499C63.1229 56.0915 63.1422 56.3071 62.8217 56.3071H61.9034C61.5595 56.3071 61.586 56.0918 61.586 55.9499V51.5951C61.586 51.4477 61.5667 51.2247 61.9034 51.2247H63.4875C63.7235 51.2247 64.0588 51.17 64.438 51.9257C64.7215 52.531 65.3224 53.7874 65.7325 54.4531C66.1562 53.7874 66.7703 52.531 67.0538 51.9257C67.4245 51.17 67.7535 51.2247 68.0162 51.2247H69.5928C69.9176 51.2247 69.8837 51.4477 69.8837 51.5951V55.9499C69.8837 56.0915 69.9295 56.3071 69.5928 56.3071H68.6704C68.3336 56.3071 68.3601 56.0918 68.3601 55.9499V52.7836C67.7212 53.9276 66.7896 55.6739 66.4383 56.3071M74.9374 55.0126C75.7006 55.0126 75.6724 54.226 75.6724 53.6988C75.6724 53.2266 75.7801 52.4855 74.7898 52.4855H73.11C72.1268 52.4855 72.2419 53.2266 72.2419 53.6988C72.2419 54.226 72.1947 55.0126 72.9565 55.0126H74.9374ZM71.9187 56.3206C70.4158 56.3206 70.4824 54.7087 70.4824 53.6665C70.4824 52.7085 70.3747 51.2128 72.2552 51.1982H75.593C77.4795 51.1982 77.3566 52.7143 77.3566 53.6665C77.3566 54.7085 77.4323 56.3206 75.9073 56.3206M79.8697 56.3071C77.9404 56.3071 77.9078 54.8368 77.9078 54.2702V51.5951C77.9078 51.4328 77.8946 51.2172 78.2385 51.2172H79.2365C79.5584 51.2172 79.539 51.4477 79.539 51.5954V54.2699C79.539 54.4603 79.573 54.9712 80.2741 54.9712H81.9453C82.6331 54.9712 82.6729 54.4606 82.6729 54.2702V51.5951C82.6729 51.4477 82.6524 51.2172 82.9756 51.2172H83.9795C84.3438 51.2172 84.3115 51.4477 84.3115 51.5954V54.2699C84.3115 54.8368 84.2776 56.3071 82.3422 56.3071M88.9863 52.5672H86.9714C86.6347 52.5672 86.6479 52.6823 86.6479 52.7841V53.6936H88.7235C89.7288 53.6936 89.7288 53.4424 89.7288 53.1799C89.7288 52.6544 89.689 52.5672 88.9863 52.5672ZM85.3799 51.2255H89.9104C90.517 51.2255 91.4014 51.2194 91.4014 52.8567C91.4014 53.9282 91.1712 53.9814 90.6854 54.3121C91.5018 54.4537 91.3939 55.4976 91.3939 56.0377C91.3939 56.3137 91.2934 56.3079 91.2109 56.3079H89.8839C89.6079 56.3079 89.6741 55.8693 89.6741 55.6405C89.6741 55.0132 89.3244 55.0413 89.19 55.0413H87.2342C87.0465 54.7165 86.6822 53.9889 86.6822 53.9889V56.0982C86.6822 56.2814 86.4989 56.3079 86.4324 56.3079H85.0995C85.1718 56.3079 84.9637 56.3212 84.9637 56.1382V51.6641C84.9637 51.3467 85.1867 51.2255 85.3799 51.2255Z" fill="black"></path></svg>