<svg xmlns="http://www.w3.org/2000/svg" viewBox="0 0 20 20" width="20" height="20" fill="default"><path fill-rule="evenodd" clip-rule="evenodd" d="M4.83073 2.83333C5.61313 2.83333 6.2474 2.19907 6.2474 1.41667C6.2474 0.634263 5.61313 0 4.83073 0C4.04833 0 3.41406 0.634263 3.41406 1.41667C3.41406 2.19907 4.04833 2.83333 4.83073 2.83333ZM15.1667 2.83333C15.9491 2.83333 16.5833 2.19907 16.5833 1.41667C16.5833 0.634263 15.9491 0 15.1667 0C14.3843 0 13.75 0.634263 13.75 1.41667C13.75 2.19907 14.3843 2.83333 15.1667 2.83333ZM13.532 12.988C13.1007 14.5331 11.6827 15.6667 10 15.6667C8.31728 15.6667 6.8993 14.5331 6.46799 12.988C6.3195 12.4561 6.78105 12 7.33333 12H12.6667C13.219 12 13.6805 12.4561 13.532 12.988ZM7.41667 10.666C8.19907 10.666 8.83333 10.0318 8.83333 9.24935C8.83333 8.46695 8.19907 7.83268 7.41667 7.83268C6.63426 7.83268 6 8.46695 6 9.24935C6 10.0318 6.63426 10.666 7.41667 10.666ZM14.0013 9.24935C14.0013 10.0318 13.367 10.666 12.5846 10.666C11.8022 10.666 11.168 10.0318 11.168 9.24935C11.168 8.46695 11.8022 7.83268 12.5846 7.83268C13.367 7.83268 14.0013 8.46695 14.0013 9.24935ZM18 8.2513L17.9167 7.08464C17.9167 5.33464 16.5833 4.0013 14.8333 3.91797H14.75L5.25 3.91797H5.16667C3.41667 4.0013 2.08333 5.33464 2.08333 7.08464L2 8.2513C0.955224 8.2513 0.0654609 9.10388 0.00344968 10.211C0.00218534 10.2244 0.00103569 10.2379 1.43051e-06 10.2513L1.43051e-06 10.3321C4.76837e-07 10.333 0 10.3338 0 10.3346L0 11.7513C0 12.8346 0.916667 13.7513 2 13.8346H2.08333L2.08333 15.668C2.16667 17.418 3.5 18.7513 5.25 18.7513H8.41667H10L11.5833 18.7513H14.75C16.5 18.7513 17.8333 17.418 17.9167 15.668V13.8346H18C19.0833 13.7513 20 12.8346 20 11.7513L20 11.668L20 10.3346C20 10.3337 20 10.3327 20 10.3317V10.2513C19.9167 9.16797 19.0833 8.2513 18 8.2513ZM10 17.2513L11.5833 17.2513H14.75C15.6667 17.2513 16.4167 16.5013 16.4167 15.5846L16.4167 7.16797C16.4167 6.2513 15.6667 5.5013 14.75 5.5013L5.25 5.5013C4.33333 5.5013 3.58333 6.2513 3.58333 7.16797L3.58333 15.5846C3.58333 16.5013 4.33333 17.2513 5.25 17.2513H8.41667H10Z" fill="default"></path><path fill-rule="evenodd" clip-rule="evenodd" d="M4.83073 2.83333C5.61313 2.83333 6.2474 2.19907 6.2474 1.41667C6.2474 0.634263 5.61313 0 4.83073 0C4.04833 0 3.41406 0.634263 3.41406 1.41667C3.41406 2.19907 4.04833 2.83333 4.83073 2.83333ZM15.1667 2.83333C15.9491 2.83333 16.5833 2.19907 16.5833 1.41667C16.5833 0.634263 15.9491 0 15.1667 0C14.3843 0 13.75 0.634263 13.75 1.41667C13.75 2.19907 14.3843 2.83333 15.1667 2.83333ZM13.532 12.988C13.1007 14.5331 11.6827 15.6667 10 15.6667C8.31728 15.6667 6.8993 14.5331 6.46799 12.988C6.3195 12.4561 6.78105 12 7.33333 12H12.6667C13.219 12 13.6805 12.4561 13.532 12.988ZM7.41667 10.666C8.19907 10.666 8.83333 10.0318 8.83333 9.24935C8.83333 8.46695 8.19907 7.83268 7.41667 7.83268C6.63426 7.83268 6 8.46695 6 9.24935C6 10.0318 6.63426 10.666 7.41667 10.666ZM14.0013 9.24935C14.0013 10.0318 13.367 10.666 12.5846 10.666C11.8022 10.666 11.168 10.0318 11.168 9.24935C11.168 8.46695 11.8022 7.83268 12.5846 7.83268C13.367 7.83268 14.0013 8.46695 14.0013 9.24935ZM18 8.2513L17.9167 7.08464C17.9167 5.33464 16.5833 4.0013 14.8333 3.91797H14.75L5.25 3.91797H5.16667C3.41667 4.0013 2.08333 5.33464 2.08333 7.08464L2 8.2513C0.955224 8.2513 0.0654609 9.10388 0.00344968 10.211C0.00218534 10.2244 0.00103569 10.2379 1.43051e-06 10.2513L1.43051e-06 10.3321C4.76837e-07 10.333 0 10.3338 0 10.3346L0 11.7513C0 12.8346 0.916667 13.7513 2 13.8346H2.08333L2.08333 15.668C2.16667 17.418 3.5 18.7513 5.25 18.7513H8.41667H10L11.5833 18.7513H14.75C16.5 18.7513 17.8333 17.418 17.9167 15.668V13.8346H18C19.0833 13.7513 20 12.8346 20 11.7513L20 11.668L20 10.3346C20 10.3337 20 10.3327 20 10.3317V10.2513C19.9167 9.16797 19.0833 8.2513 18 8.2513ZM10 17.2513L11.5833 17.2513H14.75C15.6667 17.2513 16.4167 16.5013 16.4167 15.5846L16.4167 7.16797C16.4167 6.2513 15.6667 5.5013 14.75 5.5013L5.25 5.5013C4.33333 5.5013 3.58333 6.2513 3.58333 7.16797L3.58333 15.5846C3.58333 16.5013 4.33333 17.2513 5.25 17.2513H8.41667H10Z" fill="default"></path></svg>