<svg xmlns="http://www.w3.org/2000/svg" width="24" height="25" viewBox="0 0 24 25" fill="none"><path d="M12 2.97852C17.5227 2.97852 22 7.45586 22 12.9785C22 18.5012 17.5227 22.9785 12 22.9785H3.44824C2.914 22.9784 2.64634 22.3322 3.02441 21.9541L4.92871 20.0498C3.11934 18.2404 2 15.7402 2 12.9785C2 7.45586 6.47734 2.97852 12 2.97852ZM15.6562 5.64355C14.8516 5.64355 14.1797 6.21414 14.0234 6.97266C12.676 7.11734 11.624 8.26049 11.624 9.64551V9.6543C10.1585 9.71601 8.82029 10.1334 7.75781 10.792C7.36329 10.4865 6.86757 10.3037 6.33008 10.3037C5.04023 10.3037 3.99512 11.3498 3.99512 12.6396C3.99525 13.5754 4.54541 14.3813 5.33984 14.7539C5.41718 17.4648 8.37048 19.6454 12.0039 19.6455C15.6375 19.6455 18.5955 17.4623 18.6689 14.749C19.4572 14.374 20.0029 13.5701 20.0029 12.6396C20.0027 11.3501 18.9575 10.3049 17.668 10.3047C17.133 10.3047 16.6398 10.4852 16.2461 10.7881C15.1742 10.1248 13.8203 9.70781 12.3398 9.65234V9.64648C12.3398 8.6543 13.0779 7.83047 14.0342 7.69531V7.69434C14.2078 8.4293 14.8681 8.97656 15.6562 8.97656C16.5763 8.97634 17.3222 8.23065 17.3223 7.31055C17.3223 6.39037 16.5764 5.64378 15.6562 5.64355ZM12.0039 15.9678C12.8156 15.9678 13.593 16.0084 14.3125 16.0811C14.4349 16.0938 14.5124 16.221 14.4648 16.335C14.0624 17.2965 13.1123 17.9717 12.0039 17.9717C10.8955 17.9715 9.94609 17.2965 9.54297 16.335C9.49534 16.221 9.57375 16.0937 9.69629 16.0811C10.4149 16.0084 11.1923 15.9678 12.0039 15.9678ZM8.91895 12.624C9.57285 12.624 10.0732 13.3113 10.0342 14.1582C9.99507 15.005 9.50621 15.3125 8.85156 15.3125C8.19703 15.3124 7.62501 14.9678 7.66406 14.1211C7.70322 13.2744 8.26518 12.6241 8.91895 12.624ZM15.0898 12.624C15.7445 12.624 16.3073 13.2743 16.3457 14.1211C16.3848 14.968 15.8111 15.3125 15.1572 15.3125C14.5034 15.3124 14.0147 15.0057 13.9756 14.1582C13.9365 13.3115 14.4353 12.6243 15.0898 12.624Z" fill="#647491"></path></svg>