<svg xmlns="http://www.w3.org/2000/svg" width="24" height="24" viewBox="0 0 24 24" fill="none"><path d="M12 3C14.4441 3 14.7507 3.01013 15.7109 3.05371C16.6687 3.0973 17.3232 3.25009 17.8955 3.47266C18.4874 3.70271 18.9888 4.01028 19.4893 4.51074C19.9898 5.0109 20.2983 5.51252 20.5283 6.10449C20.7509 6.67677 20.9027 7.33137 20.9463 8.28906C20.9902 9.249 21.001 9.55568 21.001 12C21.001 14.4442 20.9902 14.751 20.9463 15.7109C20.9027 16.6686 20.7509 17.3232 20.5283 17.8955C20.2983 18.4875 19.9898 18.9888 19.4893 19.4893C18.9892 19.9897 18.4874 20.2973 17.8955 20.5273C17.3232 20.7499 16.6687 20.9027 15.7109 20.9463C14.7511 20.9902 14.4442 21 12 21C9.55592 21 9.24897 20.9902 8.28906 20.9463C7.33149 20.9027 6.67673 20.7499 6.10449 20.5273C5.5127 20.2973 5.01114 19.9897 4.51074 19.4893C4.01034 18.9892 3.70271 18.4874 3.47266 17.8955C3.25011 17.3232 3.09829 16.6686 3.05469 15.7109C3.01075 14.751 3 14.4442 3 12C3 9.55568 3.01013 9.249 3.05371 8.28906C3.0973 7.3313 3.25009 6.6768 3.47266 6.10449C3.70272 5.51295 4.01063 5.01085 4.51074 4.51074C5.01083 4.01035 5.51261 3.7027 6.10449 3.47266C6.6768 3.25009 7.33131 3.09828 8.28906 3.05469C9.249 3.01075 9.55568 3 12 3ZM12 7.37891C9.44755 7.37899 7.37898 9.4479 7.37891 12C7.37891 14.5522 9.4475 16.621 12 16.6211C14.5526 16.6211 16.6211 14.5526 16.6211 12C16.621 9.44749 14.5525 7.37891 12 7.37891ZM12 9C13.6568 9.00017 15 10.3435 15 12C14.9998 13.6563 13.6567 14.9988 12 14.999C10.3432 14.999 9.00018 13.6564 9 12C9 10.3434 10.3434 9 12 9ZM16.8047 6.11621C16.2082 6.11621 15.7246 6.59984 15.7246 7.19629C15.7247 7.7927 16.2083 8.27637 16.8047 8.27637C17.4011 8.27631 17.8847 7.79266 17.8848 7.19629C17.8848 6.59987 17.4011 6.11627 16.8047 6.11621Z" fill="#647491"></path></svg>