<svg xmlns="http://www.w3.org/2000/svg" viewBox="0 0 17 19" width="20" height="20"><g clip-path="url(#clip0_214_161598)"><path d="M11.4151 2.56698C11.4151 2.56698 11.2105 2.62543 10.8744 2.72771C10.816 2.53776 10.7283 2.31858 10.6114 2.08479C10.2315 1.3542 9.66164 0.959676 8.9895 0.959676C8.94566 0.959676 8.90183 0.959676 8.84338 0.974288C8.82877 0.945064 8.79954 0.930452 8.78493 0.901229C8.49269 0.579767 8.11279 0.433649 7.65982 0.448261C6.78311 0.477484 5.90639 1.10579 5.20502 2.23091C4.70822 3.01995 4.32831 4.01356 4.22603 4.78799C3.21781 5.09484 2.51644 5.31401 2.50183 5.32863C1.99041 5.48936 1.9758 5.50397 1.91735 5.98616C1.82968 6.35146 0.5 16.6528 0.5 16.6528L11.5466 18.567V2.53776C11.4881 2.55237 11.4443 2.55237 11.4151 2.56698ZM8.85799 3.35602C8.27352 3.53137 7.63059 3.73593 7.00228 3.92589C7.17763 3.23913 7.52831 2.55237 7.93744 2.0994C8.09817 1.93867 8.31735 1.74872 8.56575 1.63182C8.81416 2.15785 8.8726 2.87383 8.85799 3.35602ZM7.67443 1.03274C7.879 1.03274 8.05434 1.07657 8.20046 1.16424C7.96667 1.28114 7.73288 1.47109 7.5137 1.69027C6.95845 2.28936 6.5347 3.22452 6.35936 4.11584C5.83333 4.27657 5.30731 4.4373 4.82511 4.58342C5.13196 3.19529 6.31553 1.07657 7.67443 1.03274ZM5.96484 9.06926C6.02329 10.0044 8.49269 10.209 8.63881 12.4154C8.7411 14.1542 7.71827 15.3378 6.24247 15.4254C4.45982 15.5423 3.48082 14.4903 3.48082 14.4903L3.86073 12.883C3.86073 12.883 4.83973 13.6282 5.62877 13.5697C6.14018 13.5405 6.33014 13.1168 6.31553 12.8245C6.24247 11.5971 4.22603 11.6702 4.09452 9.65374C3.97763 7.97337 5.08813 6.26379 7.54292 6.10306C8.49269 6.04461 8.97489 6.2784 8.97489 6.2784L8.41964 8.38251C8.41964 8.38251 7.79132 8.09027 7.04612 8.14872C5.96484 8.22178 5.95023 8.90853 5.96484 9.06926ZM9.44247 3.18068C9.44247 2.74232 9.38402 2.11401 9.17945 1.58799C9.8516 1.71949 10.1731 2.4647 10.3192 2.91767C10.0562 2.99073 9.76393 3.0784 9.44247 3.18068Z" fill="#001433"></path><path d="M11.9119 18.5083L16.5 17.3686C16.5 17.3686 14.5274 4.02796 14.5128 3.94029C14.4982 3.85262 14.4251 3.79417 14.3521 3.79417C14.279 3.79417 12.9932 3.76495 12.9932 3.76495C12.9932 3.76495 12.2041 3.00513 11.9119 2.71289V18.5083Z" fill="#001433"></path></g><defs><clipPath id="clip0_214_161598"><rect width="16" height="18.1918" fill="white" transform="translate(0.5 0.404297)"></rect></clipPath></defs></svg>