<svg xmlns="http://www.w3.org/2000/svg" width="24" height="25" viewBox="0 0 24 25" fill="none"><path d="M3.42131 12.9672C3.42131 16.3629 5.39475 19.2976 8.2562 20.688L4.16417 9.47621C3.67361 10.5746 3.42047 11.7642 3.42131 12.9672ZM17.7909 12.5343C17.7909 11.4744 17.4102 10.7399 17.0836 10.1685C16.6485 9.46157 16.2411 8.86341 16.2411 8.15651C16.2411 7.36845 16.8393 6.63394 17.6817 6.63394C17.7193 6.63394 17.7557 6.63896 17.793 6.64105C16.213 5.1899 14.145 4.38601 11.9998 4.38899C9.00282 4.38899 6.36641 5.92662 4.83258 8.25564C5.03336 8.26192 5.22326 8.2661 5.38471 8.2661C6.2815 8.2661 7.67061 8.15734 7.67061 8.15734C8.13322 8.12974 8.1876 8.80904 7.72582 8.86425C7.72582 8.86425 7.26111 8.91863 6.7437 8.9454L9.86782 18.2377L11.7451 12.6075L10.4087 8.9454C10.1082 8.92674 9.80827 8.8994 9.50936 8.86341C9.04674 8.83664 9.10112 8.12974 9.56332 8.15693C9.56332 8.15693 10.98 8.26568 11.8229 8.26568C12.7201 8.26568 14.1092 8.15693 14.1092 8.15693C14.5718 8.12974 14.6262 8.80904 14.164 8.86383C14.164 8.86383 13.6984 8.91821 13.1823 8.9454L16.2821 18.167L17.1379 15.3076C17.5089 14.1213 17.7909 13.2688 17.7909 12.5343ZM12.1504 13.7181L9.5767 21.197C11.3048 21.7062 13.1493 21.6584 14.8487 21.0603C14.8249 21.0227 14.8044 20.9831 14.7876 20.9419L12.1504 13.7181ZM19.5271 8.8517C19.5639 9.12484 19.5849 9.41806 19.5849 9.73387C19.5849 10.6039 19.4221 11.5827 18.9323 12.8066L16.3122 20.3826C18.8625 18.8952 20.5779 16.1324 20.5779 12.9677C20.5779 11.476 20.1972 10.0735 19.5271 8.8517ZM11.9998 2.96765C6.48604 2.96765 2 7.45337 2 12.9672C2 18.4819 6.48604 22.9677 11.9998 22.9677C17.5135 22.9677 22 18.4819 22 12.9672C22 7.45337 17.514 2.96765 11.9998 2.96765ZM11.9998 22.5092C6.7391 22.5092 2.45885 18.2289 2.45885 12.9672C2.45885 7.70643 6.73868 3.42609 11.9998 3.42609C17.2605 3.42609 21.5407 7.70643 21.5407 12.9672C21.5407 18.2289 17.2605 22.5092 11.9998 22.5092Z" fill="#647491"></path></svg>