<svg xmlns="http://www.w3.org/2000/svg" width="24" height="25" viewBox="0 0 24 25" fill="none"><path d="M10.7451 1.97058C11.2178 1.97058 11.5732 2.0919 11.9277 2.578H12.0459C13.2273 2.57828 13.9365 3.67198 14.291 4.7655C14.4263 4.71911 14.5446 4.67329 14.6455 4.63367C14.8088 4.56952 14.927 4.52332 15 4.52332L14.1729 23.9677L2 21.6591C2 21.6591 3.53551 9.14651 3.6543 8.65515C3.6543 8.09195 3.75586 8.04994 4.24121 7.85339H4.24219C4.28002 7.83807 4.32066 7.82209 4.36328 7.80457C4.36328 7.80457 5.19125 7.56076 6.25488 7.19617C6.72768 5.37318 8.02737 1.84937 10.7451 1.97058ZM15.7637 3.96765C15.7637 4.08921 15.884 4.09256 15.8906 4.09265C16.0179 4.21765 17.291 5.46765 17.291 5.46765C17.3067 5.46875 19.0735 5.59265 19.2002 5.59265C19.3274 5.59265 19.4541 5.59272 19.4541 5.71765L22 22.4677L15 23.9677L15.7637 3.96765ZM10.3906 9.50574C7.43608 9.50574 6.01758 11.4505 6.01758 13.5165C6.01767 14.886 6.76865 15.5224 7.42383 16.078C7.93114 16.5082 8.38161 16.8901 8.38184 17.5262C8.38184 17.8908 8.14462 18.3778 7.55371 18.3778C6.60835 18.3776 5.54492 17.4052 5.54492 17.4052L5.07227 19.4716C5.08789 19.491 6.15148 20.8083 8.2627 20.8085C10.0353 20.8085 11.3358 19.3499 11.3359 17.2841C11.3359 15.6537 10.2373 14.8364 9.37988 14.1991C8.83147 13.7914 8.38187 13.4568 8.38184 13.0302C8.38184 12.7871 8.38164 11.9364 9.68164 11.9364C10.5042 11.9365 11.2099 12.2966 11.2178 12.3007L12.0449 9.87C12.0337 9.86146 11.5581 9.50577 10.3906 9.50574ZM10.7461 2.578C8.73703 2.578 7.55477 5.25158 7.08203 6.953C7.67284 6.83149 8.26368 6.5886 8.85449 6.34558C9.20904 4.15804 10.2733 3.18522 11.1006 2.6991C10.9826 2.57775 10.8641 2.578 10.7461 2.578ZM11.5723 3.42859C10.8633 3.79322 10.1543 4.64395 9.68164 6.22351L11.8086 5.495V5.37292C11.8086 4.52229 11.6904 3.91468 11.5723 3.42859ZM12.2832 3.3075C12.4014 3.79356 12.5195 4.27962 12.5195 5.00867V5.25183L13.583 4.88757C13.3466 4.15839 12.8741 3.42903 12.2832 3.3075Z" fill="#647491"></path></svg>