<svg xmlns="http://www.w3.org/2000/svg" viewBox="0 0 20 20" width="20" height="20"><path d="M10 0C4.48571 0 0 4.48571 0 10C0 15.5143 4.48571 20 10 20C15.5143 20 20 15.5132 20 10C20 4.48677 15.5143 0 10 0ZM1.00952 10C1.00952 8.6963 1.28889 7.45926 1.78836 6.34074L6.07725 18.091C3.07725 16.6339 1.00952 13.5587 1.00952 9.99894M10 18.9915C9.11746 18.9915 8.26561 18.8624 7.46032 18.6254L10.1577 10.7873L12.9206 18.3587C12.9386 18.4032 12.9608 18.4444 12.9852 18.4825C12.0508 18.8116 11.0466 18.9926 10 18.9926M11.2392 5.78413C11.781 5.75556 12.2677 5.69841 12.2677 5.69841C12.7524 5.64127 12.6952 4.9291 12.2106 4.95767C12.2106 4.95767 10.7545 5.07196 9.81376 5.07196C8.93016 5.07196 7.4455 4.95767 7.4455 4.95767C6.96085 4.9291 6.9037 5.66984 7.38836 5.69841C7.38836 5.69841 7.84656 5.75556 8.33122 5.78413L9.73228 9.62222L7.76402 15.5228L4.48995 5.78413C5.03175 5.75556 5.51852 5.69841 5.51852 5.69841C6.00212 5.64127 5.94603 4.9291 5.46138 4.95767C5.46138 4.95767 4.00529 5.07196 3.06561 5.07196C2.89735 5.07196 2.69841 5.06773 2.48677 5.06138C4.09418 2.62116 6.85714 1.00952 9.99894 1.00952C12.3397 1.00952 14.4709 1.90476 16.0698 3.37037C16.0307 3.36825 15.9937 3.36296 15.9534 3.36296C15.0698 3.36296 14.4434 4.13228 14.4434 4.95873C14.4434 5.69947 14.8709 6.32698 15.327 7.06772C15.6688 7.66667 16.0677 8.43598 16.0677 9.54709C16.0677 10.3164 15.7714 11.2095 15.3841 12.454L14.4868 15.4497L11.237 5.78518L11.2392 5.78413ZM17.8889 5.68677C18.5905 6.9672 18.9905 8.43704 18.9905 10C18.9905 13.3175 17.1926 16.2127 14.5196 17.7714L17.2656 9.83175C17.7788 8.54921 17.9492 7.52381 17.9492 6.61164C17.9492 6.28042 17.927 5.97354 17.8889 5.68677Z" fill="#000"></path></svg>