<svg xmlns="http://www.w3.org/2000/svg" viewBox="0 0 20 20" width="20" height="20"><path d="M5.8584 0.0699376C4.7944 0.120138 4.0678 0.289938 3.4326 0.539538C2.7752 0.795738 2.218 1.13954 1.6636 1.69594C1.1092 2.25234 0.767801 2.80994 0.513401 3.46834C0.267201 4.10494 0.100401 4.83214 0.053401 5.89674C0.00640096 6.96134 -0.00399904 7.30354 0.00120096 10.0191C0.00640096 12.7347 0.018401 13.0751 0.070001 14.1419C0.120801 15.2057 0.290001 15.9321 0.539601 16.5675C0.796201 17.2249 1.1396 17.7819 1.6962 18.3365C2.2528 18.8911 2.81 19.2317 3.47 19.4865C4.106 19.7323 4.8334 19.8999 5.8978 19.9465C6.9622 19.9931 7.3048 20.0039 10.0196 19.9987C12.7344 19.9935 13.0762 19.9815 14.1428 19.9309C15.2094 19.8803 15.932 19.7099 16.5676 19.4615C17.225 19.2043 17.7824 18.8615 18.3366 18.3047C18.8908 17.7479 19.232 17.1899 19.4862 16.5311C19.7326 15.8951 19.9 15.1677 19.9462 14.1041C19.9928 13.0367 20.0038 12.6959 19.9986 9.98074C19.9934 7.26554 19.9812 6.92514 19.9306 5.85874C19.88 4.79234 19.7106 4.06814 19.4612 3.43234C19.2042 2.77494 18.8612 2.21834 18.3048 1.66334C17.7484 1.10834 17.19 0.767338 16.5314 0.513738C15.895 0.267538 15.168 0.0997376 14.1036 0.0537376C13.0392 0.00773761 12.6966 -0.00406239 9.9808 0.00113761C7.265 0.00633761 6.925 0.0179376 5.8584 0.0699376ZM5.9752 18.1475C5.0002 18.1051 4.4708 17.9431 4.118 17.8075C3.6508 17.6275 3.318 17.4099 2.9664 17.0617C2.6148 16.7135 2.3988 16.3795 2.2164 15.9133C2.0794 15.5605 1.9144 15.0317 1.8688 14.0567C1.8192 13.0029 1.8088 12.6865 1.803 10.0167C1.7972 7.34694 1.8074 7.03094 1.8536 5.97674C1.8952 5.00254 2.0582 4.47254 2.1936 4.11994C2.3736 3.65214 2.5904 3.31994 2.9394 2.96854C3.2884 2.61714 3.6214 2.40074 4.088 2.21834C4.4404 2.08074 4.9692 1.91714 5.9438 1.87074C6.9984 1.82074 7.3144 1.81074 9.9838 1.80494C12.6532 1.79914 12.97 1.80914 14.025 1.85554C14.9992 1.89794 15.5294 2.05934 15.8816 2.19554C16.349 2.37554 16.6816 2.59174 17.033 2.94134C17.3844 3.29094 17.601 3.62274 17.7834 4.09034C17.9212 4.44174 18.0848 4.97034 18.1308 5.94554C18.181 7.00014 18.1924 7.31634 18.1972 9.98554C18.202 12.6547 18.1926 12.9717 18.1464 14.0255C18.1038 15.0005 17.9422 15.5301 17.8064 15.8833C17.6264 16.3503 17.4094 16.6833 17.0602 17.0345C16.711 17.3857 16.3784 17.6021 15.9116 17.7845C15.5596 17.9219 15.0302 18.0859 14.0564 18.1323C13.0018 18.1819 12.6858 18.1923 10.0154 18.1981C7.345 18.2039 7.03 18.1931 5.9754 18.1475M14.1274 4.65534C14.1278 4.89269 14.1986 5.1246 14.3308 5.32173C14.463 5.51885 14.6507 5.67235 14.8701 5.76279C15.0896 5.85324 15.3309 5.87658 15.5636 5.82986C15.7963 5.78313 16.01 5.66845 16.1775 5.50031C16.345 5.33216 16.4589 5.11812 16.5048 4.88524C16.5506 4.65236 16.5264 4.4111 16.4352 4.19199C16.3439 3.97288 16.1897 3.78575 15.9921 3.65427C15.7945 3.52279 15.5624 3.45286 15.325 3.45334C15.0068 3.45397 14.7019 3.58096 14.4773 3.80636C14.2527 4.03177 14.1269 4.33715 14.1274 4.65534ZM4.8654 10.0099C4.871 12.8459 7.1742 15.1397 10.0096 15.1343C12.845 15.1289 15.1404 12.8259 15.135 9.98994C15.1296 7.15394 12.8258 4.85954 9.99 4.86514C7.1542 4.87074 4.86 7.17434 4.8654 10.0099ZM6.6666 10.0063C6.6653 9.34706 6.85952 8.70219 7.22472 8.15329C7.58991 7.6044 8.10967 7.17612 8.71827 6.92262C9.32686 6.66911 9.99697 6.60177 10.6438 6.72911C11.2907 6.85645 11.8853 7.17275 12.3524 7.63801C12.8195 8.10327 13.1381 8.6966 13.268 9.34296C13.398 9.98932 13.3333 10.6597 13.0822 11.2693C12.8311 11.8789 12.4049 12.4003 11.8574 12.7677C11.31 13.1351 10.6659 13.3318 10.0066 13.3331C9.56884 13.3341 9.13518 13.2487 8.7304 13.082C8.32562 12.9153 7.95764 12.6705 7.64748 12.3616C7.33732 12.0527 7.09106 11.6857 6.92276 11.2815C6.75446 10.8774 6.66741 10.4441 6.6666 10.0063Z" fill="#000"></path></svg>